<?xml version="1.0" encoding="utf-8" standalone="no"?>
<!DOCTYPE svg PUBLIC "-//W3C//DTD SVG 1.1//EN"
  "http://www.w3.org/Graphics/SVG/1.1/DTD/svg11.dtd">
<!-- Created with matplotlib (https://matplotlib.org/) -->
<svg height="345.6pt" version="1.1" viewBox="0 0 460.8 345.6" width="460.8pt" xmlns="http://www.w3.org/2000/svg" xmlns:xlink="http://www.w3.org/1999/xlink">
 <defs>
  <style type="text/css">
*{stroke-linecap:butt;stroke-linejoin:round;}
  </style>
 </defs>
 <g id="figure_1">
  <g id="patch_1">
   <path d="M 0 345.6 
L 460.8 345.6 
L 460.8 0 
L 0 0 
z
" style="fill:#ffffff;"/>
  </g>
  <g id="axes_1">
   <g id="patch_2">
    <path d="M 57.6 307.584 
L 414.72 307.584 
L 414.72 41.472 
L 57.6 41.472 
z
" style="fill:#ffffff;"/>
   </g>
   <g id="matplotlib.axis_1">
    <g id="xtick_1">
     <g id="line2d_1">
      <defs>
       <path d="M 0 0 
L 0 3.5 
" id="m1649465b90" style="stroke:#000000;stroke-width:0.8;"/>
      </defs>
      <g>
       <use style="stroke:#000000;stroke-width:0.8;" x="73.832727" xlink:href="#m1649465b90" y="307.584"/>
      </g>
     </g>
     <g id="text_1">
      <!-- −3 -->
      <defs>
       <path d="M 5.59375 26.796875 
L 5.59375 21.203125 
L 44.40625 21.203125 
L 44.40625 26.796875 
z
" id="ACaslonPro-Regular-8722"/>
       <path d="M 18.5 -1.5 
C 32 -1.5 43.5 7.59375 43.5 20.5 
C 43.5 29.296875 35.703125 36.296875 28.90625 38 
C 34.09375 41.203125 40.09375 46.59375 40.09375 55.203125 
C 40.09375 60.296875 36.203125 68.296875 25.296875 68.296875 
C 14 68.296875 7.90625 59 6.5 52.09375 
C 6.296875 51.203125 6.40625 50.703125 6.59375 50.59375 
L 8.40625 50.203125 
C 8.796875 50.09375 9.09375 50.40625 9.40625 51.203125 
C 11.5 56.90625 15.296875 62.09375 22.703125 62.09375 
C 29 62.09375 32.90625 57.296875 32.90625 50.90625 
C 32.90625 43.203125 26.296875 37.90625 19.90625 36.703125 
C 19 36.5 18.703125 36.296875 18.703125 35.296875 
C 18.703125 33.90625 18.703125 34.203125 20.5 33.796875 
C 28.59375 31.90625 34.90625 26 34.90625 15.90625 
C 34.90625 8.90625 29.40625 2.203125 20.203125 2.203125 
C 13.203125 2.203125 11.40625 5.203125 10.90625 6.296875 
C 10.703125 6.796875 10.09375 10.703125 6.796875 10.703125 
C 5.09375 10.703125 3.5 9 3.5 6.40625 
C 3.5 3.5 6.703125 -1.5 18.5 -1.5 
z
" id="ACaslonPro-Regular-51"/>
      </defs>
      <g transform="translate(68.832727 321.813687)scale(0.1 -0.1)">
       <use xlink:href="#ACaslonPro-Regular-8722"/>
       <use x="49.999985" xlink:href="#ACaslonPro-Regular-51"/>
      </g>
     </g>
    </g>
    <g id="xtick_2">
     <g id="line2d_2">
      <g>
       <use style="stroke:#000000;stroke-width:0.8;" x="128.858921" xlink:href="#m1649465b90" y="307.584"/>
      </g>
     </g>
     <g id="text_2">
      <!-- −2 -->
      <defs>
       <path d="M 31.5 0 
C 34.5 0 36.40625 -0.09375 37 -1.40625 
C 37.40625 -2.296875 37.40625 -2.40625 38.296875 -2.40625 
C 40.09375 -2.40625 39.296875 -2.40625 39.796875 -1.296875 
L 46.296875 14.296875 
C 46.703125 14.90625 46.296875 15.296875 45.5 15.703125 
C 44.5 16.203125 44.203125 16.09375 43.703125 15.203125 
C 41.5 11.5 38.90625 6.796875 32.09375 6.796875 
L 11.796875 6.796875 
C 16.203125 10.703125 24.09375 16.5 30.90625 24.296875 
C 39.90625 34.40625 43.296875 41.59375 43.296875 50.09375 
C 43.296875 61.40625 34.203125 68.296875 25.796875 68.296875 
C 12.296875 68.296875 7.40625 57.203125 5.796875 53.296875 
C 5.40625 52.40625 5.5 52.09375 5.796875 51.90625 
L 7.203125 51.296875 
C 7.703125 51 8 51.09375 8.40625 51.796875 
C 10.09375 54.796875 13.296875 61.40625 21.796875 61.5 
C 29 61.59375 34.40625 56.296875 34.703125 47.40625 
C 35 38.703125 30.40625 31 22.40625 22.40625 
C 14.40625 13.796875 5.59375 6.09375 0.90625 1.703125 
C 0.40625 1.203125 0.296875 0.90625 0.59375 0.203125 
C 0.90625 -0.40625 1.203125 -0.40625 1.703125 -0.40625 
C 2.09375 -0.40625 3.296875 -0.296875 4.796875 -0.203125 
C 6.296875 -0.09375 8.09375 0 9.796875 0 
z
" id="ACaslonPro-Regular-50"/>
      </defs>
      <g transform="translate(123.858921 321.813687)scale(0.1 -0.1)">
       <use xlink:href="#ACaslonPro-Regular-8722"/>
       <use x="49.999985" xlink:href="#ACaslonPro-Regular-50"/>
      </g>
     </g>
    </g>
    <g id="xtick_3">
     <g id="line2d_3">
      <g>
       <use style="stroke:#000000;stroke-width:0.8;" x="183.885116" xlink:href="#m1649465b90" y="307.584"/>
      </g>
     </g>
     <g id="text_3">
      <!-- −1 -->
      <defs>
       <path d="M 22.59375 32.5 
C 22.59375 30.703125 22.59375 10.5 22.5 9.203125 
C 22.296875 3.90625 22.09375 3.59375 15.59375 3.59375 
L 11 3.59375 
C 10.203125 3.59375 9.59375 3.5 9.59375 3 
L 9.59375 0.5 
C 9.59375 -0.09375 9.90625 -0.296875 10.40625 -0.296875 
C 10.90625 -0.296875 25 0 25.90625 0 
C 26.796875 0 40.40625 -0.296875 41.296875 -0.296875 
C 42 -0.296875 42.203125 -0.09375 42.203125 0.5 
L 42.203125 2.796875 
C 42.203125 3.296875 41.90625 3.59375 41.203125 3.59375 
L 37.59375 3.59375 
C 31.09375 3.59375 30.703125 4.296875 30.59375 9.5 
C 30.59375 10.796875 30.5 32 30.5 33.203125 
L 30.5 37.40625 
C 30.5 50.296875 30.796875 66 30.796875 66.90625 
C 30.796875 67.703125 30.703125 68.296875 30.09375 68.296875 
C 29.59375 68.296875 29.203125 68 28.703125 67.703125 
L 8 55.796875 
C 7.296875 55.40625 7.203125 55 7.40625 54.59375 
L 8.203125 52.796875 
C 8.40625 52.40625 8.796875 52.40625 9.203125 52.5 
L 16.203125 54.796875 
C 17.796875 55.296875 19.296875 55.59375 20.203125 55.59375 
C 22.09375 55.59375 22.5 53.40625 22.59375 50 
C 22.703125 42.09375 22.59375 37.40625 22.59375 36.09375 
z
" id="ACaslonPro-Regular-49"/>
      </defs>
      <g transform="translate(178.885116 321.813687)scale(0.1 -0.1)">
       <use xlink:href="#ACaslonPro-Regular-8722"/>
       <use x="49.999985" xlink:href="#ACaslonPro-Regular-49"/>
      </g>
     </g>
    </g>
    <g id="xtick_4">
     <g id="line2d_4">
      <g>
       <use style="stroke:#000000;stroke-width:0.8;" x="238.91131" xlink:href="#m1649465b90" y="307.584"/>
      </g>
     </g>
     <g id="text_4">
      <!-- 0 -->
      <defs>
       <path d="M 25.5 -1.5 
C 38.40625 -1.5 46.90625 11.09375 46.90625 34 
C 46.90625 49.203125 40.09375 68.296875 25.40625 68.296875 
C 12.59375 68.296875 3.09375 52.90625 3.09375 30 
C 3.09375 17.90625 9.296875 -1.5 25.5 -1.5 
z
M 25.59375 2.09375 
C 22.09375 2.09375 18.296875 4 15.203125 10.59375 
C 13 15.203125 11.796875 22.203125 11.796875 31.703125 
C 11.796875 40 12.203125 51.703125 15.796875 58.703125 
C 18.09375 63.203125 20.90625 64.703125 24.796875 64.703125 
C 33.296875 64.703125 38.296875 50.90625 38.296875 36.203125 
C 38.296875 21.59375 37.40625 14 35.203125 9.203125 
C 32.5 3.296875 28.703125 2.09375 25.59375 2.09375 
z
" id="ACaslonPro-Regular-48"/>
      </defs>
      <g transform="translate(236.41131 321.813687)scale(0.1 -0.1)">
       <use xlink:href="#ACaslonPro-Regular-48"/>
      </g>
     </g>
    </g>
    <g id="xtick_5">
     <g id="line2d_5">
      <g>
       <use style="stroke:#000000;stroke-width:0.8;" x="293.937504" xlink:href="#m1649465b90" y="307.584"/>
      </g>
     </g>
     <g id="text_5">
      <!-- 1 -->
      <g transform="translate(291.437504 321.813687)scale(0.1 -0.1)">
       <use xlink:href="#ACaslonPro-Regular-49"/>
      </g>
     </g>
    </g>
    <g id="xtick_6">
     <g id="line2d_6">
      <g>
       <use style="stroke:#000000;stroke-width:0.8;" x="348.963698" xlink:href="#m1649465b90" y="307.584"/>
      </g>
     </g>
     <g id="text_6">
      <!-- 2 -->
      <g transform="translate(346.463698 321.813687)scale(0.1 -0.1)">
       <use xlink:href="#ACaslonPro-Regular-50"/>
      </g>
     </g>
    </g>
    <g id="xtick_7">
     <g id="line2d_7">
      <g>
       <use style="stroke:#000000;stroke-width:0.8;" x="403.989892" xlink:href="#m1649465b90" y="307.584"/>
      </g>
     </g>
     <g id="text_7">
      <!-- 3 -->
      <g transform="translate(401.489892 321.813687)scale(0.1 -0.1)">
       <use xlink:href="#ACaslonPro-Regular-51"/>
      </g>
     </g>
    </g>
   </g>
   <g id="matplotlib.axis_2">
    <g id="ytick_1">
     <g id="line2d_8">
      <defs>
       <path d="M 0 0 
L -3.5 0 
" id="mb515172ccb" style="stroke:#000000;stroke-width:0.8;"/>
      </defs>
      <g>
       <use style="stroke:#000000;stroke-width:0.8;" x="57.6" xlink:href="#mb515172ccb" y="295.795147"/>
      </g>
     </g>
     <g id="text_8">
      <!-- −1.0 -->
      <defs>
       <path d="M 13 -1.203125 
C 16.09375 -1.203125 18.59375 1 18.59375 4.296875 
C 18.59375 8 15.90625 10.296875 13 10.296875 
C 8 10.296875 6.796875 6.40625 6.796875 4.703125 
C 6.796875 0 10.796875 -1.203125 13 -1.203125 
z
" id="ACaslonPro-Regular-46"/>
      </defs>
      <g transform="translate(33.059375 299.409991)scale(0.1 -0.1)">
       <use xlink:href="#ACaslonPro-Regular-8722"/>
       <use x="49.999985" xlink:href="#ACaslonPro-Regular-49"/>
       <use x="99.999969" xlink:href="#ACaslonPro-Regular-46"/>
       <use x="125.399963" xlink:href="#ACaslonPro-Regular-48"/>
      </g>
     </g>
    </g>
    <g id="ytick_2">
     <g id="line2d_9">
      <g>
       <use style="stroke:#000000;stroke-width:0.8;" x="57.6" xlink:href="#mb515172ccb" y="264.740384"/>
      </g>
     </g>
     <g id="text_9">
      <!-- −0.5 -->
      <defs>
       <path d="M 15.90625 59.09375 
L 36.703125 59.09375 
C 39.796875 59.09375 40.296875 59.5 41 61.09375 
L 44.59375 71.09375 
C 44.796875 71.703125 44.296875 71.796875 43.203125 72.296875 
C 42.59375 72.5 42.296875 72.40625 42 71.796875 
C 40.296875 68.5 39.40625 66.796875 35.90625 66.796875 
L 14.5 66.796875 
C 13.203125 66.796875 13 66.40625 12.90625 65.203125 
L 9.296875 37 
C 9.203125 36.40625 9.296875 36.09375 9.796875 35.90625 
C 10.5 35.5 11 35.59375 11.59375 35.703125 
C 14.203125 35.90625 19.203125 35.90625 24.59375 33.5 
C 31.09375 30.703125 33.40625 25.203125 33.40625 18.203125 
C 33.40625 9.40625 25.59375 2.796875 17.796875 2.796875 
C 14.796875 2.796875 11.40625 3.796875 9.90625 4.703125 
C 8.40625 5.59375 6.703125 6.703125 4.90625 6.703125 
C 3.59375 6.703125 2.703125 5.5 2.703125 4.09375 
C 2.703125 1.203125 8.296875 -1.5 15.703125 -1.5 
C 29.296875 -1.5 41 9 40.90625 23.296875 
C 40.90625 32.296875 35.296875 39.296875 25.5 41.90625 
C 23.296875 42.5 16.59375 43.203125 14.09375 43 
z
" id="ACaslonPro-Regular-53"/>
      </defs>
      <g transform="translate(33.059375 268.355228)scale(0.1 -0.1)">
       <use xlink:href="#ACaslonPro-Regular-8722"/>
       <use x="49.999985" xlink:href="#ACaslonPro-Regular-48"/>
       <use x="99.999969" xlink:href="#ACaslonPro-Regular-46"/>
       <use x="125.399963" xlink:href="#ACaslonPro-Regular-53"/>
      </g>
     </g>
    </g>
    <g id="ytick_3">
     <g id="line2d_10">
      <g>
       <use style="stroke:#000000;stroke-width:0.8;" x="57.6" xlink:href="#mb515172ccb" y="233.685622"/>
      </g>
     </g>
     <g id="text_10">
      <!-- 0.0 -->
      <g transform="translate(38.059375 237.300466)scale(0.1 -0.1)">
       <use xlink:href="#ACaslonPro-Regular-48"/>
       <use x="49.999985" xlink:href="#ACaslonPro-Regular-46"/>
       <use x="75.399979" xlink:href="#ACaslonPro-Regular-48"/>
      </g>
     </g>
    </g>
    <g id="ytick_4">
     <g id="line2d_11">
      <g>
       <use style="stroke:#000000;stroke-width:0.8;" x="57.6" xlink:href="#mb515172ccb" y="202.63086"/>
      </g>
     </g>
     <g id="text_11">
      <!-- 0.5 -->
      <g transform="translate(38.059375 206.245703)scale(0.1 -0.1)">
       <use xlink:href="#ACaslonPro-Regular-48"/>
       <use x="49.999985" xlink:href="#ACaslonPro-Regular-46"/>
       <use x="75.399979" xlink:href="#ACaslonPro-Regular-53"/>
      </g>
     </g>
    </g>
    <g id="ytick_5">
     <g id="line2d_12">
      <g>
       <use style="stroke:#000000;stroke-width:0.8;" x="57.6" xlink:href="#mb515172ccb" y="171.576097"/>
      </g>
     </g>
     <g id="text_12">
      <!-- 1.0 -->
      <g transform="translate(38.059375 175.190941)scale(0.1 -0.1)">
       <use xlink:href="#ACaslonPro-Regular-49"/>
       <use x="49.999985" xlink:href="#ACaslonPro-Regular-46"/>
       <use x="75.399979" xlink:href="#ACaslonPro-Regular-48"/>
      </g>
     </g>
    </g>
    <g id="ytick_6">
     <g id="line2d_13">
      <g>
       <use style="stroke:#000000;stroke-width:0.8;" x="57.6" xlink:href="#mb515172ccb" y="140.521335"/>
      </g>
     </g>
     <g id="text_13">
      <!-- 1.5 -->
      <g transform="translate(38.059375 144.136179)scale(0.1 -0.1)">
       <use xlink:href="#ACaslonPro-Regular-49"/>
       <use x="49.999985" xlink:href="#ACaslonPro-Regular-46"/>
       <use x="75.399979" xlink:href="#ACaslonPro-Regular-53"/>
      </g>
     </g>
    </g>
    <g id="ytick_7">
     <g id="line2d_14">
      <g>
       <use style="stroke:#000000;stroke-width:0.8;" x="57.6" xlink:href="#mb515172ccb" y="109.466572"/>
      </g>
     </g>
     <g id="text_14">
      <!-- 2.0 -->
      <g transform="translate(38.059375 113.081416)scale(0.1 -0.1)">
       <use xlink:href="#ACaslonPro-Regular-50"/>
       <use x="49.999985" xlink:href="#ACaslonPro-Regular-46"/>
       <use x="75.399979" xlink:href="#ACaslonPro-Regular-48"/>
      </g>
     </g>
    </g>
    <g id="ytick_8">
     <g id="line2d_15">
      <g>
       <use style="stroke:#000000;stroke-width:0.8;" x="57.6" xlink:href="#mb515172ccb" y="78.41181"/>
      </g>
     </g>
     <g id="text_15">
      <!-- 2.5 -->
      <g transform="translate(38.059375 82.026654)scale(0.1 -0.1)">
       <use xlink:href="#ACaslonPro-Regular-50"/>
       <use x="49.999985" xlink:href="#ACaslonPro-Regular-46"/>
       <use x="75.399979" xlink:href="#ACaslonPro-Regular-53"/>
      </g>
     </g>
    </g>
    <g id="ytick_9">
     <g id="line2d_16">
      <g>
       <use style="stroke:#000000;stroke-width:0.8;" x="57.6" xlink:href="#mb515172ccb" y="47.357048"/>
      </g>
     </g>
     <g id="text_16">
      <!-- 3.0 -->
      <g transform="translate(38.059375 50.971891)scale(0.1 -0.1)">
       <use xlink:href="#ACaslonPro-Regular-51"/>
       <use x="49.999985" xlink:href="#ACaslonPro-Regular-46"/>
       <use x="75.399979" xlink:href="#ACaslonPro-Regular-48"/>
      </g>
     </g>
    </g>
   </g>
   <g id="line2d_17">
    <path clip-path="url(#p60ebe4d29a)" d="M 57.6 233.685622 
L 414.72 233.685622 
" style="fill:none;stroke:#000000;stroke-linecap:square;stroke-width:1.5;"/>
   </g>
   <g id="line2d_18">
    <path clip-path="url(#p60ebe4d29a)" d="M 238.91131 307.584 
L 238.91131 41.472 
" style="fill:none;stroke:#000000;stroke-linecap:square;stroke-width:1.5;"/>
   </g>
   <g id="line2d_19">
    <path clip-path="url(#p60ebe4d29a)" d="M 73.832727 230.740024 
L 79.335347 230.446389 
L 84.837966 230.125245 
L 90.340586 229.774377 
L 95.843205 229.391468 
L 101.345824 228.974107 
L 106.848444 228.519805 
L 112.351063 228.026018 
L 117.853683 227.490167 
L 123.356302 226.90967 
L 128.858921 226.281985 
L 134.361541 225.604647 
L 139.86416 224.87532 
L 145.36678 224.091858 
L 150.869399 223.252364 
L 156.372018 222.355259 
L 161.874638 221.399357 
L 167.377257 220.383935 
L 172.879877 219.308806 
L 178.382496 218.174396 
L 183.885116 216.981798 
L 189.387735 215.732833 
L 194.890354 214.430084 
L 200.392974 213.076922 
L 205.895593 211.677504 
L 211.398213 210.236751 
L 216.900832 208.760303 
L 222.403451 207.254449 
L 227.906071 205.726026 
L 233.40869 204.182305 
L 238.91131 202.63086 
L 244.413929 201.079414 
L 249.916549 199.535694 
L 255.419168 198.00727 
L 260.921787 196.501416 
L 266.424407 195.024969 
L 271.927026 193.584216 
L 277.429646 192.184797 
L 282.932265 190.831635 
L 288.434884 189.528886 
L 293.937504 188.279921 
L 299.440123 187.087323 
L 304.942743 185.952913 
L 310.445362 184.877785 
L 315.947982 183.862362 
L 321.450601 182.90646 
L 326.95322 182.009355 
L 332.45584 181.169861 
L 337.958459 180.386399 
L 343.461079 179.657073 
L 348.963698 178.979734 
L 354.466317 178.352049 
L 359.968937 177.771553 
L 365.471556 177.235701 
L 370.974176 176.741914 
L 376.476795 176.287613 
L 381.979414 175.870252 
L 387.482034 175.487342 
L 392.984653 175.136475 
L 398.487273 174.81533 
" style="fill:none;stroke:#1f77b4;stroke-linecap:square;stroke-width:1.5;"/>
   </g>
   <g id="line2d_20">
    <path clip-path="url(#p60ebe4d29a)" d="M 73.832727 295.488 
L 79.335347 295.420202 
L 84.837966 295.337494 
L 90.340586 295.236624 
L 95.843205 295.113644 
L 101.345824 294.963767 
L 106.848444 294.7812 
L 112.351063 294.558944 
L 117.853683 294.288564 
L 123.356302 293.959931 
L 128.858921 293.560917 
L 134.361541 293.077076 
L 139.86416 292.491294 
L 145.36678 291.783435 
L 150.869399 290.930018 
L 156.372018 289.90395 
L 161.874638 288.674392 
L 167.377257 287.206838 
L 172.879877 285.463514 
L 178.382496 283.404236 
L 183.885116 280.987873 
L 189.387735 278.174542 
L 194.890354 274.92863 
L 200.392974 271.222618 
L 205.895593 267.041515 
L 211.398213 262.387499 
L 216.900832 257.284072 
L 222.403451 251.77891 
L 227.906071 245.944509 
L 233.40869 239.875954 
L 238.91131 233.685622 
L 244.413929 227.49529 
L 249.916549 221.426735 
L 255.419168 215.592334 
L 260.921787 210.087173 
L 266.424407 204.983745 
L 271.927026 200.329729 
L 277.429646 196.148627 
L 282.932265 192.442614 
L 288.434884 189.196702 
L 293.937504 186.383371 
L 299.440123 183.967008 
L 304.942743 181.907731 
L 310.445362 180.164406 
L 315.947982 178.696852 
L 321.450601 177.467294 
L 326.95322 176.441226 
L 332.45584 175.587809 
L 337.958459 174.87995 
L 343.461079 174.294168 
L 348.963698 173.810327 
L 354.466317 173.411313 
L 359.968937 173.08268 
L 365.471556 172.812301 
L 370.974176 172.590044 
L 376.476795 172.407477 
L 381.979414 172.2576 
L 387.482034 172.13462 
L 392.984653 172.03375 
L 398.487273 171.951042 
" style="fill:none;stroke:#ff7f0e;stroke-linecap:square;stroke-width:1.5;"/>
   </g>
   <g id="line2d_21">
    <path clip-path="url(#p60ebe4d29a)" d="M 73.832727 233.685622 
L 79.335347 233.685622 
L 84.837966 233.685622 
L 90.340586 233.685622 
L 95.843205 233.685622 
L 101.345824 233.685622 
L 106.848444 233.685622 
L 112.351063 233.685622 
L 117.853683 233.685622 
L 123.356302 233.685622 
L 128.858921 233.685622 
L 134.361541 233.685622 
L 139.86416 233.685622 
L 145.36678 233.685622 
L 150.869399 233.685622 
L 156.372018 233.685622 
L 161.874638 233.685622 
L 167.377257 233.685622 
L 172.879877 233.685622 
L 178.382496 233.685622 
L 183.885116 233.685622 
L 189.387735 233.685622 
L 194.890354 233.685622 
L 200.392974 233.685622 
L 205.895593 233.685622 
L 211.398213 233.685622 
L 216.900832 233.685622 
L 222.403451 233.685622 
L 227.906071 233.685622 
L 233.40869 233.685622 
L 238.91131 233.685622 
L 244.413929 227.47467 
L 249.916549 221.263717 
L 255.419168 215.052765 
L 260.921787 208.841812 
L 266.424407 202.63086 
L 271.927026 196.419907 
L 277.429646 190.208955 
L 282.932265 183.998002 
L 288.434884 177.78705 
L 293.937504 171.576097 
L 299.440123 165.365145 
L 304.942743 159.154192 
L 310.445362 152.94324 
L 315.947982 146.732287 
L 321.450601 140.521335 
L 326.95322 134.310382 
L 332.45584 128.09943 
L 337.958459 121.888477 
L 343.461079 115.677525 
L 348.963698 109.466572 
L 354.466317 103.25562 
L 359.968937 97.044667 
L 365.471556 90.833715 
L 370.974176 84.622762 
L 376.476795 78.41181 
L 381.979414 72.200857 
L 387.482034 65.989905 
L 392.984653 59.778952 
L 398.487273 53.568 
" style="fill:none;stroke:#2ca02c;stroke-linecap:square;stroke-width:1.5;"/>
   </g>
   <g id="line2d_22">
    <path clip-path="url(#p60ebe4d29a)" d="M 73.832727 252.31848 
L 79.335347 251.697384 
L 84.837966 251.076289 
L 90.340586 250.455194 
L 95.843205 249.834099 
L 101.345824 249.213003 
L 106.848444 248.591908 
L 112.351063 247.970813 
L 117.853683 247.349718 
L 123.356302 246.728622 
L 128.858921 246.107527 
L 134.361541 245.486432 
L 139.86416 244.865337 
L 145.36678 244.244241 
L 150.869399 243.623146 
L 156.372018 243.002051 
L 161.874638 242.380956 
L 167.377257 241.75986 
L 172.879877 241.138765 
L 178.382496 240.51767 
L 183.885116 239.896575 
L 189.387735 239.275479 
L 194.890354 238.654384 
L 200.392974 238.033289 
L 205.895593 237.412194 
L 211.398213 236.791098 
L 216.900832 236.170003 
L 222.403451 235.548908 
L 227.906071 234.927813 
L 233.40869 234.306717 
L 238.91131 233.685622 
L 244.413929 227.47467 
L 249.916549 221.263717 
L 255.419168 215.052765 
L 260.921787 208.841812 
L 266.424407 202.63086 
L 271.927026 196.419907 
L 277.429646 190.208955 
L 282.932265 183.998002 
L 288.434884 177.78705 
L 293.937504 171.576097 
L 299.440123 165.365145 
L 304.942743 159.154192 
L 310.445362 152.94324 
L 315.947982 146.732287 
L 321.450601 140.521335 
L 326.95322 134.310382 
L 332.45584 128.09943 
L 337.958459 121.888477 
L 343.461079 115.677525 
L 348.963698 109.466572 
L 354.466317 103.25562 
L 359.968937 97.044667 
L 365.471556 90.833715 
L 370.974176 84.622762 
L 376.476795 78.41181 
L 381.979414 72.200857 
L 387.482034 65.989905 
L 392.984653 59.778952 
L 398.487273 53.568 
" style="fill:none;stroke:#d62728;stroke-dasharray:5.55,2.4;stroke-dashoffset:0;stroke-width:1.5;"/>
   </g>
   <g id="line2d_23">
    <path clip-path="url(#p60ebe4d29a)" d="M 73.832727 242.522417 
L 79.335347 243.079398 
L 84.837966 243.654679 
L 90.340586 244.245984 
L 95.843205 244.850424 
L 101.345824 245.464411 
L 106.848444 246.083582 
L 112.351063 246.702711 
L 117.853683 247.315624 
L 123.356302 247.915121 
L 128.858921 248.492896 
L 134.361541 249.039476 
L 139.86416 249.544166 
L 145.36678 249.995021 
L 150.869399 250.378835 
L 156.372018 250.681166 
L 161.874638 250.886393 
L 167.377257 250.977816 
L 172.879877 250.937801 
L 178.382496 250.747971 
L 183.885116 250.389446 
L 189.387735 249.843132 
L 194.890354 249.090052 
L 200.392974 248.111712 
L 205.895593 246.890493 
L 211.398213 245.410058 
L 216.900832 243.65575 
L 222.403451 241.614974 
L 227.906071 239.277541 
L 233.40869 236.635954 
L 238.91131 233.685622 
L 244.413929 230.425001 
L 249.916549 226.855636 
L 255.419168 222.982117 
L 260.921787 218.81194 
L 266.424407 214.355295 
L 271.927026 209.624778 
L 277.429646 204.635045 
L 282.932265 199.402432 
L 288.434884 193.94456 
L 293.937504 188.279921 
L 299.440123 182.427494 
L 304.942743 176.406371 
L 310.445362 170.235433 
L 315.947982 163.933058 
L 321.450601 157.516879 
L 326.95322 151.003596 
L 332.45584 144.408829 
L 337.958459 137.747021 
L 343.461079 131.031378 
L 348.963698 124.273846 
L 354.466317 117.485119 
L 359.968937 110.674669 
L 365.471556 103.850804 
L 370.974176 97.020722 
L 376.476795 90.190599 
L 381.979414 83.365659 
L 387.482034 76.550267 
L 392.984653 69.748009 
L 398.487273 62.961776 
" style="fill:none;stroke:#9467bd;stroke-linecap:square;stroke-width:1.5;"/>
   </g>
   <g id="patch_3">
    <path d="M 57.6 307.584 
L 57.6 41.472 
" style="fill:none;stroke:#000000;stroke-linecap:square;stroke-linejoin:miter;stroke-width:0.8;"/>
   </g>
   <g id="patch_4">
    <path d="M 414.72 307.584 
L 414.72 41.472 
" style="fill:none;stroke:#000000;stroke-linecap:square;stroke-linejoin:miter;stroke-width:0.8;"/>
   </g>
   <g id="patch_5">
    <path d="M 57.6 307.584 
L 414.72 307.584 
" style="fill:none;stroke:#000000;stroke-linecap:square;stroke-linejoin:miter;stroke-width:0.8;"/>
   </g>
   <g id="patch_6">
    <path d="M 57.6 41.472 
L 414.72 41.472 
" style="fill:none;stroke:#000000;stroke-linecap:square;stroke-linejoin:miter;stroke-width:0.8;"/>
   </g>
   <g id="legend_1">
    <g id="patch_7">
     <path d="M 64.6 124.370437 
L 148.91875 124.370437 
Q 150.91875 124.370437 150.91875 122.370437 
L 150.91875 48.472 
Q 150.91875 46.472 148.91875 46.472 
L 64.6 46.472 
Q 62.6 46.472 62.6 48.472 
L 62.6 122.370437 
Q 62.6 124.370437 64.6 124.370437 
z
" style="fill:#ffffff;opacity:0.8;stroke:#cccccc;stroke-linejoin:miter;"/>
    </g>
    <g id="line2d_24">
     <path d="M 66.6 54.201687 
L 86.6 54.201687 
" style="fill:none;stroke:#1f77b4;stroke-linecap:square;stroke-width:1.5;"/>
    </g>
    <g id="line2d_25"/>
    <g id="text_17">
     <!-- Sigmoid -->
     <defs>
      <path d="M 29.203125 -1.5 
C 42.40625 -1.5 49.59375 8.59375 49.59375 20.40625 
C 49.59375 27 47.796875 30.90625 45.203125 34 
C 41.59375 38.40625 36 40.09375 29.09375 42.296875 
C 26.203125 43.203125 20.59375 45.40625 17.703125 48.296875 
C 15.203125 50.90625 14.59375 54.203125 14.59375 57 
C 14.59375 62.09375 17.796875 68.703125 26.703125 68.703125 
C 31.40625 68.703125 34.90625 67.296875 37.59375 64.40625 
C 41.703125 60.09375 43 56.203125 43.796875 53.296875 
C 43.90625 53 44.09375 52.90625 44.40625 53 
L 45.59375 53.296875 
C 46 53.40625 46.09375 53.59375 46.09375 54.09375 
C 46 56.296875 44.703125 66.5 44.703125 70 
C 44.703125 70.90625 44.40625 71.703125 43.90625 71.703125 
C 43.40625 71.703125 43.09375 71.5 42.59375 71.09375 
L 41.296875 69.90625 
C 40.796875 69.40625 40.296875 69.296875 39.40625 69.796875 
C 37.703125 70.59375 33.296875 72.296875 27.59375 72.296875 
C 22.203125 72.296875 17.203125 70.90625 13.59375 67.5 
C 10.5 64.59375 7.40625 59.703125 7.40625 54.703125 
C 7.40625 48.09375 9.09375 43.40625 12.40625 40.09375 
C 16.703125 35.59375 23.90625 33.09375 27 32 
C 35 29.203125 42.40625 25.40625 42.40625 15.09375 
C 42.40625 6.09375 34.796875 2.40625 28.796875 2.40625 
C 23.296875 2.40625 17.796875 5.09375 14.796875 9.796875 
C 11.5 14.90625 11.296875 18.203125 11.203125 21.40625 
C 11.203125 22 11 22.203125 10.59375 22.203125 
L 9.09375 22.296875 
C 8.703125 22.296875 8.5 22.296875 8.40625 21.703125 
C 8.09375 18.796875 7.09375 6.09375 6.703125 3.59375 
C 6.5 2.5 7 2 7.59375 2 
C 8.296875 2 8.796875 2.09375 9.40625 3.203125 
C 10 4.203125 10.40625 4.90625 11 4.90625 
C 11.5 4.90625 12.09375 4.59375 13.296875 3.703125 
C 17.296875 0.59375 22.203125 -1.5 29.203125 -1.5 
z
" id="ACaslonPro-Regular-83"/>
      <path d="M 10.203125 14.40625 
C 10.203125 11.40625 10.203125 8.296875 10.09375 5.296875 
C 10 3.703125 9.59375 3.296875 8.5 3.296875 
L 3.59375 3.296875 
C 2.90625 3.296875 2.59375 3.09375 2.59375 2.5 
L 2.59375 0.5 
C 2.59375 -0.09375 2.90625 -0.296875 3.40625 -0.296875 
C 4.5 -0.296875 8.40625 0 14.203125 0 
C 18.40625 0 23 -0.296875 23.796875 -0.296875 
C 24.5 -0.296875 24.703125 0 24.703125 0.703125 
L 24.703125 2.40625 
C 24.703125 3 24.5 3.296875 23.703125 3.296875 
L 19.09375 3.296875 
C 18 3.296875 17.703125 4 17.5 5.90625 
C 17.40625 7 17.40625 10.59375 17.40625 14.5 
L 17.40625 25.40625 
C 17.40625 33.703125 17.40625 40 17.59375 41.703125 
C 17.703125 42.40625 17.59375 42.90625 17.09375 42.90625 
C 16.5 42.90625 16 42.703125 15.203125 42.296875 
C 11.40625 40.203125 7.59375 38.59375 4.40625 37.40625 
C 3.90625 37.203125 3.703125 37 3.703125 36.703125 
L 3.703125 35.796875 
C 3.703125 35.40625 3.90625 35.203125 4.59375 35.09375 
C 9.59375 34.296875 10.203125 32.5 10.203125 29.09375 
z
M 11.203125 54.40625 
C 15.203125 54.40625 17 57.296875 17 59.90625 
C 17 62.09375 15.296875 64.796875 11.796875 64.796875 
C 7.796875 64.796875 5.703125 62.09375 5.703125 59.59375 
C 5.703125 56.40625 9 54.40625 11.203125 54.40625 
z
" id="ACaslonPro-Regular-105"/>
      <path d="M 21.796875 -27.203125 
C 30.296875 -27.203125 36.296875 -24.40625 38.90625 -22.5 
C 43.90625 -18.796875 45.59375 -14.90625 45.59375 -10.203125 
C 45.5 -7.796875 45 -3.796875 40.703125 -0.59375 
C 36.703125 2.5 31.703125 3.40625 23.5 3 
C 16.796875 2.59375 11.796875 2.296875 11.796875 6.40625 
C 11.796875 9.203125 15.09375 11.203125 17.09375 12 
C 18.59375 11.59375 20 11.5 22.203125 11.5 
C 25.5 11.5 31.203125 13.59375 33.796875 16.5 
C 36.40625 19.59375 37.5 23.40625 37.5 27.296875 
C 37.5 30.703125 36.796875 32.90625 36 34.90625 
C 37.296875 35.5 38.5 35.5 39.203125 35.5 
C 40 35.5 40.703125 35 41.296875 34.59375 
C 42.09375 33.90625 43.09375 33.09375 44.796875 33.09375 
C 47.09375 33.09375 48.703125 34.90625 48.703125 36.796875 
C 48.90625 38.796875 47.296875 41 44 41 
C 40.703125 41 37.296875 39 34.59375 37.09375 
C 33.59375 38.296875 29.59375 42.90625 22 42.90625 
C 10.703125 42.90625 4.90625 34.90625 4.90625 28.40625 
C 4.90625 19.5 10.296875 14.90625 14.203125 13.203125 
L 14.203125 13 
C 10.703125 11.703125 5.203125 8.296875 5.203125 3.5 
C 5.203125 0.5 7.703125 -2.59375 11.90625 -3.5 
L 11.90625 -3.90625 
C 7.09375 -6 1.40625 -10.296875 1.40625 -15.90625 
C 1.40625 -19.203125 2.90625 -21.796875 6.5 -24 
C 11.296875 -26.703125 17 -27.203125 21.796875 -27.203125 
z
M 21.203125 14.296875 
C 18.796875 14.296875 17 15.09375 15.203125 16.796875 
C 13.09375 19 12 22.09375 12 25.5 
C 12 29.296875 12.40625 33.90625 15.59375 37.296875 
C 18 39.703125 20.40625 40.09375 22.703125 40.09375 
C 24.203125 40.09375 26.203125 39.203125 27.5 37.90625 
C 29.296875 35.90625 30.203125 33.296875 30.203125 28.90625 
C 30.203125 22.59375 28 14.296875 21.203125 14.296875 
z
M 25.296875 -24 
C 18.203125 -24 14.59375 -23.5 11.296875 -21.203125 
C 9.296875 -19.796875 7.40625 -16.796875 7.40625 -14.296875 
C 7.40625 -8.90625 12.296875 -5.5 15.40625 -4.703125 
L 25 -4 
C 35 -3.296875 39.5 -7.796875 39.5 -13.703125 
C 40 -21.40625 29 -24 25.296875 -24 
z
" id="ACaslonPro-Regular-103"/>
      <path d="M 37.40625 5 
C 37.40625 3.703125 36.796875 3.296875 35.203125 3.296875 
L 32.296875 3.296875 
C 31.40625 3.296875 31.296875 3.09375 31.296875 2.296875 
L 31.296875 0.703125 
C 31.296875 0 31.5 -0.296875 32 -0.296875 
C 32.59375 -0.296875 36 0 41.40625 0 
C 47 0 49.59375 -0.296875 50.296875 -0.296875 
C 50.796875 -0.296875 51 0 51 0.796875 
L 51 2.40625 
C 51 3.09375 50.796875 3.296875 49.90625 3.296875 
L 46.5 3.296875 
C 45 3.296875 44.5 4.296875 44.5 5.59375 
L 44.5 22.90625 
C 44.5 27.40625 44.40625 30.09375 45.90625 33 
C 47.5 35.90625 51.59375 38.203125 54.59375 38.203125 
C 57.59375 38.203125 60.203125 37.5 62 36.09375 
C 64.296875 34.296875 64.90625 31.40625 64.90625 28.09375 
L 64.90625 13.296875 
C 64.90625 11.09375 64.90625 7.5 64.703125 5.203125 
C 64.59375 3.796875 63.796875 3.296875 62.703125 3.296875 
L 60.203125 3.296875 
C 59.09375 3.296875 58.90625 3.09375 58.90625 2.40625 
L 58.90625 0.703125 
C 58.90625 0 59.09375 -0.296875 59.703125 -0.296875 
C 60.40625 -0.296875 64 0 69 0 
C 73.796875 0 76.59375 -0.296875 77.296875 -0.296875 
C 77.796875 -0.296875 78 0 78 0.703125 
L 78 2.40625 
C 78 3.09375 77.796875 3.296875 76.90625 3.296875 
L 74.203125 3.296875 
C 73 3.296875 72.09375 3.796875 72.09375 5.296875 
L 72.09375 27.59375 
C 72.09375 35.296875 69.59375 37.5 67.296875 39.90625 
C 64.90625 42.296875 61.796875 42.90625 58.296875 42.90625 
C 52.296875 42.90625 46.59375 39.09375 43.59375 35.203125 
L 43.09375 35.203125 
C 41 39.90625 37 42.90625 31.796875 42.90625 
C 26 42.90625 20.09375 39.40625 17.09375 35.296875 
L 16.796875 35.296875 
L 16.40625 41.09375 
C 16.40625 41.796875 16.09375 42.5 15.5 42.5 
C 15.09375 42.5 14.40625 42.296875 13.59375 41.90625 
L 4.796875 37.40625 
C 4.59375 37.296875 4.203125 36.90625 4.203125 36.59375 
L 4.203125 35.796875 
C 4.203125 35.5 4.40625 35.296875 4.90625 35 
L 7 33.90625 
C 9.40625 32.59375 9.796875 30.796875 9.796875 28.796875 
L 9.796875 11 
C 9.796875 9.296875 9.796875 7.5 9.703125 5.796875 
C 9.59375 3.90625 9.09375 3.296875 8.203125 3.296875 
L 4.796875 3.296875 
C 3.796875 3.296875 3.59375 3.203125 3.59375 2.40625 
L 3.59375 0.59375 
C 3.59375 -0.09375 3.796875 -0.296875 4.40625 -0.296875 
C 5.203125 -0.296875 8.40625 0 13.703125 0 
C 19.203125 0 21.90625 -0.296875 22.796875 -0.296875 
C 23.5 -0.296875 23.59375 0.09375 23.59375 0.796875 
L 23.59375 2.40625 
C 23.59375 3.09375 23.5 3.296875 22.59375 3.296875 
L 19 3.296875 
C 17.59375 3.296875 17 4.296875 17 5.90625 
L 17 25.703125 
C 17 28.5 17.203125 30.40625 18.40625 32.40625 
C 21.203125 36.90625 25.40625 38.203125 28 38.203125 
C 30.203125 38.203125 33.09375 37.59375 34.40625 36.40625 
C 36 34.90625 37.40625 33 37.40625 25.59375 
z
" id="ACaslonPro-Regular-109"/>
      <path d="M 24.203125 -1.203125 
C 36.5 -1.203125 46.296875 9.90625 46.296875 20.796875 
C 46.296875 27.296875 44 32.5 39.5 37.09375 
C 36.5 40.09375 31 42.90625 25.5 42.90625 
C 22.203125 42.90625 17.296875 42.09375 12.09375 38.09375 
C 6.203125 33.5 3.5 27.09375 3.5 22 
C 3.5 14.90625 4.40625 11.203125 9 5.703125 
C 13.203125 0.703125 19.40625 -1.203125 24.203125 -1.203125 
z
M 25.40625 1.796875 
C 20.703125 1.796875 17.796875 3.703125 15.5 7 
C 12.296875 11.59375 11.703125 15.40625 11.703125 21 
C 11.703125 28.59375 13.09375 32.703125 17 36.703125 
C 19.40625 39.296875 22 39.90625 24.703125 39.90625 
C 29.796875 39.90625 37.90625 32.90625 37.90625 21.796875 
C 37.90625 11.09375 33 1.796875 25.40625 1.796875 
z
" id="ACaslonPro-Regular-111"/>
      <path d="M 36.296875 41.40625 
C 33.296875 42.296875 29.703125 42.90625 25.59375 42.90625 
C 20 42.90625 14.59375 40.796875 10.703125 36.59375 
C 6 31.90625 3.703125 25.796875 3.703125 19.59375 
C 3.703125 12.90625 4.90625 8.40625 10 3.40625 
C 14.703125 -1.40625 18.5 -1.203125 21.796875 -1.203125 
C 26.90625 -1.203125 33.296875 1 36.5 4.203125 
L 37.796875 -0.203125 
C 38 -0.90625 38.5 -1.203125 39.09375 -1 
L 50.40625 2.796875 
C 51 3 51.203125 3.296875 51.09375 3.90625 
L 50.90625 4.703125 
C 50.703125 5.203125 50.296875 5.296875 48.90625 5.40625 
C 47.5 5.5 45.40625 6.09375 44.5 7.09375 
C 43.703125 8.09375 43.5 12.5 43.5 16.203125 
L 43.5 38.296875 
C 43.5 51 43.59375 65.5 43.90625 70.5 
C 44 71.59375 43.90625 72.296875 43.40625 72.296875 
C 42.703125 72.296875 42 72.09375 41.09375 72 
C 39.203125 71.59375 34 70.703125 30.09375 69.90625 
C 29.5 69.796875 29.296875 69.59375 29.296875 69.203125 
L 29.296875 67.5 
C 29.296875 67.09375 29.40625 66.90625 30 66.796875 
C 35.59375 65.90625 36.296875 64.703125 36.296875 60.90625 
z
M 36.296875 12 
C 36.296875 10.90625 36.203125 10.09375 35.703125 8.59375 
C 34.703125 6 30.40625 3.09375 24.796875 3.09375 
C 19 3.09375 11.203125 11.296875 11.203125 22.59375 
C 11.203125 26.40625 11.90625 31.703125 15.796875 35.90625 
C 18.40625 38.59375 21.796875 39.5 24.90625 39.5 
C 30.796875 39.5 34 36.796875 35.40625 34.09375 
C 36.296875 32.5 36.296875 30.59375 36.296875 29.203125 
z
" id="ACaslonPro-Regular-100"/>
     </defs>
     <g transform="translate(94.6 57.701687)scale(0.1 -0.1)">
      <use xlink:href="#ACaslonPro-Regular-83"/>
      <use x="54.799988" xlink:href="#ACaslonPro-Regular-105"/>
      <use x="81.499985" xlink:href="#ACaslonPro-Regular-103"/>
      <use x="129.999969" xlink:href="#ACaslonPro-Regular-109"/>
      <use x="210.59996" xlink:href="#ACaslonPro-Regular-111"/>
      <use x="260.399948" xlink:href="#ACaslonPro-Regular-105"/>
      <use x="287.099945" xlink:href="#ACaslonPro-Regular-100"/>
     </g>
    </g>
    <g id="line2d_26">
     <path d="M 66.6 69.181375 
L 86.6 69.181375 
" style="fill:none;stroke:#ff7f0e;stroke-linecap:square;stroke-width:1.5;"/>
    </g>
    <g id="line2d_27"/>
    <g id="text_18">
     <!-- Tanh -->
     <defs>
      <path d="M 29.703125 41.5 
C 29.703125 39.59375 29.703125 8.90625 29.40625 6 
C 29.296875 4.796875 28.09375 3.59375 26.09375 3.59375 
L 19.296875 3.59375 
C 18.703125 3.59375 18.59375 3.296875 18.59375 2.59375 
L 18.59375 0.703125 
C 18.59375 0.09375 18.703125 -0.296875 19.5 -0.296875 
C 20.90625 -0.296875 25.09375 0 34.703125 0 
C 44.5 0 47.703125 -0.296875 48.703125 -0.296875 
C 49.59375 -0.296875 49.703125 0 49.703125 0.5 
L 49.703125 2.59375 
C 49.703125 3.296875 49.59375 3.59375 48.703125 3.59375 
L 42.40625 3.59375 
C 40 3.59375 39.203125 5.09375 39 7.59375 
C 38.90625 9.296875 38.90625 37.296875 38.90625 38.703125 
L 38.90625 67.203125 
L 41.703125 67.203125 
C 46.59375 67.203125 56 67 59 65.5 
C 62.296875 63.90625 65.296875 56.203125 66.09375 54.296875 
C 66.40625 53.59375 66.5 53.5 66.90625 53.59375 
L 68.5 54 
C 69 54.09375 69.203125 54.296875 69.09375 54.796875 
C 68.296875 59.203125 66.40625 71.59375 66.203125 72.796875 
C 66 74.09375 65.796875 74.40625 65.296875 74.40625 
C 64.90625 74.40625 64.59375 74.296875 64.09375 74 
L 62.203125 72.796875 
C 60.5 71.796875 59.203125 71.5 57 71.40625 
C 52.09375 71.203125 47.796875 70.796875 36.90625 70.796875 
L 32.09375 70.796875 
C 22.703125 70.796875 18.5 71.203125 13.203125 71.40625 
C 10.296875 71.5 9.296875 71.796875 7.5 73.09375 
L 6.203125 74 
C 5.796875 74.296875 5.5 74.40625 5 74.40625 
C 4.59375 74.40625 4.203125 74.09375 4 72.796875 
C 3.796875 71.703125 0.296875 58.796875 -0.703125 55.203125 
C -0.90625 54.59375 -0.59375 54.5 -0.296875 54.40625 
L 1.5 53.90625 
C 2 53.796875 2.296875 53.90625 2.5 54.40625 
C 3.90625 57.59375 6.90625 64.59375 11.40625 66 
C 15.296875 67.203125 24 67.203125 27.203125 67.203125 
L 29.703125 67.203125 
z
" id="ACaslonPro-Regular-84"/>
      <path d="M 33.59375 17.796875 
L 33.59375 33.09375 
C 33.59375 35.796875 33.5 38.09375 31.40625 40.203125 
C 30 41.5 28.09375 42.90625 23.40625 42.90625 
C 18.90625 42.90625 15.40625 41.90625 11.203125 39.40625 
C 7.09375 37 4.296875 33.203125 4.296875 30 
C 4.296875 27.703125 5.09375 26.796875 6.703125 26.796875 
C 10.796875 26.796875 12 29 12 32.5 
C 12 34.296875 11.09375 35.796875 12.5 37.09375 
C 13.90625 38.40625 17 39.203125 19 39.203125 
C 21.90625 39.203125 23.90625 38.296875 25 37 
C 26.09375 35.703125 26.203125 33.09375 26.40625 31.40625 
L 26.40625 25 
C 24.796875 23.59375 19.59375 21.203125 15.09375 19.203125 
C 7.203125 15.703125 5.09375 11.703125 5.09375 7.09375 
C 5.09375 0.796875 8.703125 -1.203125 11.09375 -1.203125 
C 13.296875 -1.203125 15.09375 -1.203125 17 -0.59375 
C 21.5 0.90625 24.796875 3 26.90625 5.5 
L 27.09375 5.5 
C 28 1.40625 30.59375 -1.203125 34.203125 -1.203125 
C 39.296875 -1.203125 41.203125 2.203125 42 3.703125 
C 42.59375 4.703125 42.40625 5.203125 42.09375 5.5 
L 41.09375 6.296875 
C 40.703125 6.59375 40.5 6.40625 40.09375 5.90625 
C 39.59375 5.203125 38.203125 4.40625 36.59375 4.40625 
C 34.796875 4.40625 33.59375 6.203125 33.59375 11.90625 
z
M 26.296875 9.703125 
C 26.296875 7 21 3.5 18.09375 3.5 
C 15.09375 3.5 12.90625 5.296875 12.90625 9 
C 12.90625 17.296875 22.703125 19.296875 26.296875 22 
z
" id="ACaslonPro-Regular-97"/>
      <path d="M 44.796875 31.203125 
C 44.796875 33.703125 42.296875 38.703125 39.296875 40.703125 
C 36.90625 42.296875 33.796875 42.90625 30.796875 42.90625 
C 25.796875 42.90625 20 39.203125 17.09375 35.59375 
L 16.90625 35.59375 
L 16.203125 41.703125 
C 16.09375 42.5 15.90625 42.90625 15.40625 42.90625 
C 15 42.90625 14.40625 42.59375 13.59375 42.203125 
L 5 37.40625 
C 4.5 37.203125 4.09375 36.90625 4.09375 36.40625 
L 4.09375 35.90625 
C 4.09375 35.59375 4.203125 35.296875 4.90625 35 
L 5.703125 34.59375 
C 8.203125 33.40625 9.796875 31.703125 9.796875 28.703125 
L 9.796875 5.296875 
C 9.796875 3.59375 9.09375 3.296875 7.796875 3.296875 
L 4.90625 3.296875 
C 4.09375 3.296875 3.90625 3 3.90625 2.40625 
L 3.90625 0.59375 
C 3.90625 0 4.09375 -0.296875 4.59375 -0.296875 
C 5.203125 -0.296875 8.40625 0 13.5 0 
C 18.796875 0 21.5 -0.296875 22.203125 -0.296875 
C 22.703125 -0.296875 22.90625 0 22.90625 0.59375 
L 22.90625 2.296875 
C 22.90625 3 22.703125 3.296875 21.90625 3.296875 
L 19.40625 3.296875 
C 17.296875 3.296875 17 3.90625 17 6.59375 
L 17 27.296875 
C 17 29.203125 17.296875 31.90625 19.296875 34.09375 
C 22.296875 37.296875 25.796875 38 27.40625 38 
C 29.90625 38 32.296875 38 34.703125 36.203125 
C 37.59375 34.09375 37.59375 31.203125 37.59375 27.203125 
L 37.59375 14 
C 37.59375 11.40625 37.5 8.203125 37.40625 5.59375 
C 37.296875 3.796875 36.5 3.296875 35.40625 3.296875 
L 32.5 3.296875 
C 31.5 3.296875 31.203125 3.09375 31.203125 2.40625 
L 31.203125 0.796875 
C 31.203125 0 31.40625 -0.296875 32 -0.296875 
C 32.703125 -0.296875 35.90625 0 41 0 
C 46.703125 0 49.796875 -0.296875 50.5 -0.296875 
C 51.09375 -0.296875 51.296875 0.09375 51.296875 0.796875 
L 51.296875 2.40625 
C 51.296875 3 51.09375 3.296875 50.203125 3.296875 
L 47 3.296875 
C 45.703125 3.296875 44.796875 3.796875 44.796875 5.40625 
z
" id="ACaslonPro-Regular-110"/>
      <path d="M 9.796875 24.296875 
C 9.796875 17.796875 9.796875 6.796875 9.5 4.90625 
C 9.296875 3.703125 7.796875 3.296875 6.203125 3.296875 
L 4.09375 3.296875 
C 3 3.296875 2.59375 3.203125 2.59375 2.5 
L 2.59375 0.703125 
C 2.59375 0 2.90625 -0.296875 3.296875 -0.296875 
C 4.203125 -0.296875 8 0 13 0 
C 17.59375 0 21.703125 -0.296875 22.5 -0.296875 
C 23.09375 -0.296875 23.296875 0.09375 23.296875 0.796875 
L 23.296875 2.5 
C 23.296875 3.09375 22.90625 3.296875 22.203125 3.296875 
L 19.203125 3.296875 
C 17.296875 3.296875 17 4.203125 17 7.40625 
L 17 29.203125 
C 17 31 18.09375 33 19 34.09375 
C 21.796875 37.296875 25.40625 38.296875 28.296875 38.296875 
C 30.796875 38.296875 32.90625 37.40625 34.90625 35.5 
C 37.796875 32.796875 38.203125 28.796875 38.203125 23.203125 
L 38.203125 15.09375 
C 38.203125 11.90625 38.296875 6.59375 38.203125 5.203125 
C 38.09375 3.5 36.09375 3.296875 34.40625 3.296875 
L 32.09375 3.296875 
C 31.5 3.296875 31.40625 3 31.40625 2.5 
L 31.40625 0.796875 
C 31.40625 0 31.59375 -0.296875 32.296875 -0.296875 
C 33.203125 -0.296875 36.796875 0 41.703125 0 
C 47.40625 0 50.59375 -0.296875 51.296875 -0.296875 
C 51.90625 -0.296875 52.09375 0.09375 52.09375 0.90625 
L 52.09375 2.40625 
C 52.09375 3.09375 51.796875 3.296875 51 3.296875 
L 49.296875 3.296875 
C 47.203125 3.296875 45.59375 3.59375 45.59375 4.796875 
C 45.59375 6.703125 45.40625 12.90625 45.40625 18.5 
L 45.40625 24.203125 
C 45.40625 29.59375 45.59375 34.703125 41.09375 38.90625 
C 38.296875 41.59375 35.40625 42.90625 31.203125 42.90625 
C 26.796875 42.90625 21 40.59375 17.5 36.40625 
L 17 36.40625 
L 17 42.796875 
C 17 47.796875 17.09375 68.09375 17.296875 69.796875 
C 17.5 71.5 17.09375 72.296875 16.5 72.296875 
C 15.703125 72.296875 15 71.90625 14.203125 71.5 
L 3.796875 66 
C 2.90625 65.5 2.59375 65.40625 2.59375 65 
L 2.59375 64.09375 
C 2.59375 63.796875 2.703125 63.703125 3.296875 63.5 
L 5 62.90625 
C 8.59375 61.703125 9.796875 60.59375 9.796875 54.5 
z
" id="ACaslonPro-Regular-104"/>
     </defs>
     <g transform="translate(94.6 72.681375)scale(0.1 -0.1)">
      <use xlink:href="#ACaslonPro-Regular-84"/>
      <use x="70.199982" xlink:href="#ACaslonPro-Regular-97"/>
      <use x="112.899979" xlink:href="#ACaslonPro-Regular-110"/>
      <use x="166.099976" xlink:href="#ACaslonPro-Regular-104"/>
     </g>
    </g>
    <g id="line2d_28">
     <path d="M 66.6 84.161063 
L 86.6 84.161063 
" style="fill:none;stroke:#2ca02c;stroke-linecap:square;stroke-width:1.5;"/>
    </g>
    <g id="line2d_29"/>
    <g id="text_19">
     <!-- ReLU -->
     <defs>
      <path d="M 13.90625 35.796875 
C 13.90625 26.296875 13.90625 16.90625 13.703125 7 
C 13.703125 4.296875 12 3.59375 9.796875 3.59375 
L 5.703125 3.59375 
C 5.203125 3.59375 5.203125 3.296875 5.203125 2.796875 
L 5.203125 0.5 
C 5.203125 0 5.203125 -0.296875 6 -0.296875 
C 7.09375 -0.296875 9.40625 0 18.5 0 
C 28 0 30.5 -0.296875 31.59375 -0.296875 
C 32.59375 -0.296875 32.703125 -0.09375 32.703125 0.59375 
L 32.703125 2.796875 
C 32.703125 3.296875 32.59375 3.59375 31.90625 3.59375 
L 25.59375 3.59375 
C 24.09375 3.59375 23.296875 5.40625 23.09375 7.5 
C 23 9 22.90625 20.203125 22.90625 26.09375 
L 22.90625 31.703125 
C 24.296875 32 25.296875 32 26.203125 32 
C 32 32 34.40625 29.296875 37 26.203125 
C 38.203125 24.796875 43 17.59375 43.40625 16.90625 
C 43.90625 16.09375 49.296875 6.59375 50.09375 5.40625 
C 51 4.09375 53.203125 0.703125 54.296875 -0.296875 
C 55.796875 -0.203125 59.5 0 62.40625 0 
C 66.796875 0 69.40625 -0.296875 70.203125 -0.296875 
C 70.90625 -0.296875 71 0 71 0.59375 
L 71 2.796875 
C 71 3.203125 70.90625 3.59375 70.203125 3.59375 
C 67.40625 3.59375 65.09375 3.796875 63 5.296875 
C 61.09375 6.703125 54.703125 15.796875 54.203125 16.796875 
C 53.40625 18.09375 46.296875 28.296875 45.09375 29.59375 
C 44.296875 30.703125 42.90625 32.5 40.5 33.40625 
L 40.5 33.59375 
C 53.296875 36.40625 59 41.09375 59 53.59375 
C 59 57.296875 57.09375 61.796875 53.796875 65 
C 50 68.59375 43.40625 71.09375 35.09375 71.09375 
C 33.296875 71.09375 24 70.796875 18.40625 70.796875 
C 10 70.796875 6.90625 71.09375 6 71.09375 
C 5.5 71.09375 5.40625 70.90625 5.40625 70.40625 
L 5.40625 67.90625 
C 5.40625 67.5 5.5 67.203125 6 67.203125 
L 10 67.203125 
C 12.5 67.203125 13.703125 65.5 13.796875 62.203125 
C 13.90625 59.296875 13.90625 52.90625 13.90625 45.5 
z
M 22.90625 63.90625 
C 22.90625 65.5 23.40625 66.59375 24.09375 67.09375 
C 25 67.703125 26.296875 67.90625 27.5 67.90625 
C 35.796875 67.90625 40.203125 66.40625 44.09375 63.296875 
C 47 60.90625 49.09375 56.5 49.09375 51.90625 
C 49.09375 47.703125 45.59375 35.203125 27.40625 35.203125 
C 25.5 35.203125 24.40625 35.296875 22.90625 35.59375 
z
" id="ACaslonPro-Regular-82"/>
      <path d="M 36.203125 26.59375 
C 37.796875 26.59375 39 26.796875 39 28.203125 
C 39 32.09375 35.796875 42.90625 24.296875 42.90625 
C 19.296875 42.90625 14.296875 42 10 37.59375 
C 4.703125 32.296875 3.703125 25.59375 3.703125 21.703125 
C 3.703125 14.703125 4.59375 11 8.09375 5.90625 
C 11.796875 0.5 18.09375 -1.203125 23.796875 -1.203125 
C 32.703125 -1.203125 37.90625 5.703125 39.703125 9.703125 
C 40.203125 10.796875 40 11.09375 39.703125 11.203125 
L 38.40625 11.90625 
C 38.09375 12 37.703125 11.796875 37.5 11.40625 
C 35.796875 8.09375 31.5 4.59375 25.40625 4.59375 
C 17.40625 4.59375 11.203125 12 11.203125 21.796875 
C 11.203125 24.09375 11.296875 25.703125 11.5 26.59375 
z
M 11.90625 29.59375 
C 13.796875 37 18 39.90625 22.40625 39.90625 
C 28.90625 39.90625 30.09375 33.296875 30.09375 31 
C 30.09375 30.09375 29.296875 29.59375 27.40625 29.59375 
z
" id="ACaslonPro-Regular-101"/>
      <path d="M 14 39.203125 
C 14 33.09375 13.703125 8.203125 13.703125 6.296875 
C 13.703125 5 13.09375 3.59375 9.40625 3.59375 
L 4.59375 3.59375 
C 4 3.59375 3.90625 3.40625 3.90625 2.90625 
L 3.90625 0.40625 
C 3.90625 -0.09375 4 -0.296875 4.703125 -0.296875 
C 5.40625 -0.296875 6.59375 -0.203125 8.59375 -0.09375 
C 10.703125 -0.09375 13.59375 0 17.5 0 
C 22.90625 0 32.703125 0 41.59375 -0.09375 
C 50.5 -0.09375 58.296875 -0.203125 59.59375 -0.296875 
C 60.203125 2.40625 64.203125 18.90625 64.5 19.59375 
C 64.59375 20.203125 64.59375 20.296875 64.296875 20.5 
L 62.703125 21.09375 
C 62.296875 21.296875 62.09375 21.09375 61.90625 20.703125 
C 60.5 16.796875 54.5 4.796875 48.59375 3.90625 
C 45.5 3.5 25.703125 3.703125 23.5 3.90625 
C 23.203125 8 23.203125 29.59375 23.203125 31.296875 
L 23.203125 39.90625 
C 23.203125 46.90625 23.5 62 23.5 63.296875 
C 23.5 66.203125 23.90625 67.203125 27 67.203125 
L 33 67.203125 
C 33.796875 67.203125 34 67.5 34 68 
L 34 70.296875 
C 34 70.796875 33.90625 71.09375 33.09375 71.09375 
C 32.203125 71.09375 28 70.796875 18.296875 70.796875 
C 10 70.796875 6.40625 71.09375 5.296875 71.09375 
C 4.703125 71.09375 4.59375 70.90625 4.59375 70.40625 
L 4.59375 68.203125 
C 4.59375 67.703125 4.703125 67.203125 5.296875 67.203125 
L 10 67.203125 
C 13 67.203125 13.5 66.203125 13.703125 63.59375 
C 13.796875 61.796875 14 51.203125 14 44.796875 
z
" id="ACaslonPro-Regular-76"/>
      <path d="M 37 -1.5 
C 45.703125 -1.5 51.796875 0.796875 55.796875 4.5 
C 61.40625 9.296875 63.59375 15.59375 64.203125 23.796875 
C 64.5 27.703125 64.703125 45.203125 64.703125 46.59375 
C 64.703125 48 64.703125 62.203125 64.90625 63.203125 
C 65.203125 64.40625 65.5 67.203125 69.203125 67.203125 
L 73.296875 67.203125 
C 73.796875 67.203125 73.90625 67.59375 73.90625 68.203125 
L 73.90625 70.40625 
C 73.90625 70.703125 73.796875 71.09375 72.90625 71.09375 
C 72 71.09375 68.796875 70.796875 61.90625 70.796875 
C 55.203125 70.796875 50.59375 71.09375 49.59375 71.09375 
C 49 71.09375 48.90625 70.90625 48.90625 70.40625 
L 48.90625 68 
C 48.90625 67.5 49 67.203125 49.59375 67.203125 
L 54 67.203125 
C 56.59375 67.203125 58.203125 65.40625 58.5 62.796875 
C 58.796875 60.296875 59 54.5 59 46.90625 
L 59 25.5 
C 59 18.09375 57.703125 12.09375 53.796875 7.90625 
C 50.296875 4.296875 44.5 2.40625 38.796875 2.40625 
C 33 2.40625 26.59375 4.203125 22.90625 9.59375 
C 20.59375 13 19.796875 17.703125 19.703125 22.296875 
C 19.59375 25.5 19.203125 38.203125 19.203125 43.5 
L 19.203125 50.09375 
C 19.203125 55.203125 19.296875 62.203125 19.40625 63.09375 
C 19.59375 65.296875 21.296875 67.203125 24.203125 67.203125 
L 29.203125 67.203125 
C 29.90625 67.203125 30 67.40625 30 67.90625 
L 30 70.5 
C 30 70.90625 29.90625 71.09375 29.09375 71.09375 
C 28 71.09375 23.203125 70.796875 15.40625 70.796875 
C 7.59375 70.796875 2.703125 71.09375 1.703125 71.09375 
C 0.90625 71.09375 0.796875 70.90625 0.796875 70.296875 
L 0.796875 68.09375 
C 0.796875 67.40625 0.90625 67.203125 1.5 67.203125 
L 6.203125 67.203125 
C 9.296875 67.203125 10 65.59375 10 62.09375 
L 10 38.296875 
C 10 25.203125 10.40625 18.5 11.59375 14 
C 13.203125 7.703125 16.703125 3.296875 23.5 0.59375 
C 26.796875 -0.796875 31.796875 -1.5 37 -1.5 
z
" id="ACaslonPro-Regular-85"/>
     </defs>
     <g transform="translate(94.6 87.661063)scale(0.1 -0.1)">
      <use xlink:href="#ACaslonPro-Regular-82"/>
      <use x="69.699982" xlink:href="#ACaslonPro-Regular-101"/>
      <use x="112.299973" xlink:href="#ACaslonPro-Regular-76"/>
      <use x="178.499969" xlink:href="#ACaslonPro-Regular-85"/>
     </g>
    </g>
    <g id="line2d_30">
     <path d="M 66.6 99.14075 
L 86.6 99.14075 
" style="fill:none;stroke:#d62728;stroke-dasharray:5.55,2.4;stroke-dashoffset:0;stroke-width:1.5;"/>
    </g>
    <g id="line2d_31"/>
    <g id="text_20">
     <!-- Leaky ReLU -->
     <defs>
      <path d="M 9.5 24.296875 
C 9.5 15.5 9.40625 10.09375 9.296875 5.703125 
C 9.296875 4.40625 8.796875 3.296875 7.5 3.296875 
L 3.796875 3.296875 
C 3.09375 3.296875 2.796875 3.09375 2.796875 2.40625 
L 2.796875 0.703125 
C 2.796875 0.09375 3 -0.296875 3.296875 -0.296875 
C 4 -0.296875 7.5 0 12.90625 0 
C 17.90625 0 21.203125 -0.296875 21.796875 -0.296875 
C 22.40625 -0.296875 22.59375 0 22.59375 0.796875 
L 22.59375 2.5 
C 22.59375 3.09375 22.40625 3.296875 21.703125 3.296875 
L 18.796875 3.296875 
C 17.40625 3.296875 16.90625 4 16.796875 5.40625 
C 16.703125 8.90625 16.703125 12.296875 16.703125 15.796875 
L 16.703125 20.203125 
C 18 20.203125 19.90625 20 21 19.09375 
C 22.59375 17.59375 34 5.5 34.296875 4.703125 
C 34.59375 3.796875 34 3.09375 33.203125 3.09375 
L 32.5 3.09375 
C 31.703125 3.09375 31.5 2.796875 31.5 2.296875 
L 31.5 0.703125 
C 31.5 0 31.703125 -0.296875 32.203125 -0.296875 
C 33 -0.296875 37.203125 0 43.09375 0 
C 47.796875 0 50.59375 -0.296875 51.40625 -0.296875 
C 52.09375 -0.296875 52.296875 0 52.296875 0.59375 
L 52.296875 2.40625 
C 52.296875 3.09375 52.09375 3.296875 51.5 3.296875 
C 50.40625 3.296875 48.09375 3.796875 46.296875 4.703125 
C 44.59375 5.5 27.796875 22.296875 25.796875 24.296875 
C 29.203125 27.59375 37.59375 35.296875 39 36.09375 
C 41 37.40625 43.90625 38.40625 45.90625 38.40625 
L 46.59375 38.40625 
C 47.296875 38.40625 47.40625 38.59375 47.40625 39.203125 
L 47.40625 41 
C 47.40625 41.703125 47.203125 42 46.796875 42 
C 46.09375 42 43.59375 41.703125 38.703125 41.703125 
C 33.59375 41.703125 30 42 29.40625 42 
C 28.90625 42 28.703125 41.703125 28.703125 41.203125 
L 28.703125 39.296875 
C 28.703125 38.703125 28.796875 38.40625 29.5 38.40625 
C 30.09375 38.40625 31.296875 38.40625 32.09375 37.796875 
C 32.703125 37.40625 32.703125 36.59375 32.09375 35.5 
C 31.296875 34.296875 23.40625 25.703125 21.5 24.40625 
C 20.5 23.59375 18 23.296875 16.703125 23.296875 
L 16.703125 39.09375 
C 16.703125 51.09375 16.703125 65.796875 17.203125 70.59375 
C 17.296875 71.796875 17.203125 72.296875 16.59375 72.296875 
C 16 72.296875 15.296875 71.90625 14.40625 71.5 
L 4.203125 67.09375 
C 3.203125 66.703125 2.90625 66.5 2.90625 66.09375 
L 2.90625 65.203125 
C 2.90625 64.90625 3.203125 64.796875 4.296875 64.5 
C 9.203125 63.203125 9.5 61.5 9.5 57.40625 
z
" id="ACaslonPro-Regular-107"/>
      <path d="M 5.59375 -27.203125 
C 10.90625 -27.203125 12.703125 -23.296875 14.09375 -20.703125 
C 15.90625 -17.40625 19.796875 -8.09375 24.703125 3 
C 31.59375 18.703125 38.203125 33.90625 40.40625 36.59375 
C 41.40625 37.90625 42.796875 38.40625 43.90625 38.40625 
L 45.5 38.40625 
C 46 38.40625 46 38.703125 46 39.296875 
L 46 41.203125 
C 46 41.59375 46 42 45.40625 42 
C 44.296875 42 42 41.703125 39.296875 41.703125 
C 34.5 41.703125 32.40625 42 31.09375 42 
C 30.59375 42 30.5 41.703125 30.5 41.203125 
L 30.5 39.203125 
C 30.5 38.703125 30.59375 38.40625 31.203125 38.40625 
L 32.796875 38.40625 
C 34.296875 38.40625 35.09375 37.09375 34.5 34.59375 
C 33.90625 32.09375 25.203125 11.40625 24.203125 9.796875 
L 23.796875 9.796875 
C 22.703125 12 15.90625 34 15.59375 36.203125 
C 15.40625 37.703125 15.796875 38.40625 16.90625 38.40625 
L 18.796875 38.40625 
C 19.296875 38.40625 19.40625 38.703125 19.40625 39.203125 
L 19.40625 41.296875 
C 19.40625 41.703125 19.296875 42 18.5 42 
C 17.40625 42 14.296875 41.703125 9.203125 41.703125 
C 3.296875 41.703125 0.90625 42 0 42 
C -0.703125 42 -0.796875 41.703125 -0.796875 41.296875 
L -0.796875 39.296875 
C -0.796875 38.703125 -0.703125 38.40625 0 38.40625 
L 2.59375 38.40625 
C 5.203125 38.40625 6.09375 36.703125 7.296875 34.203125 
C 8.09375 32.09375 18.703125 0.90625 19.203125 -1.59375 
C 17.796875 -5.5 12.703125 -16.90625 11.203125 -18.703125 
C 10.59375 -19.296875 9.796875 -19.40625 9.09375 -19.296875 
C 8.203125 -19.09375 6.40625 -18.203125 4.5 -18.203125 
C 2.09375 -18.203125 -0.09375 -20 -0.09375 -22.09375 
C -0.09375 -25.09375 1.796875 -27.203125 5.59375 -27.203125 
z
" id="ACaslonPro-Regular-121"/>
      <path id="ACaslonPro-Regular-32"/>
     </defs>
     <g transform="translate(94.6 102.64075)scale(0.1 -0.1)">
      <use xlink:href="#ACaslonPro-Regular-76"/>
      <use x="66.199997" xlink:href="#ACaslonPro-Regular-101"/>
      <use x="108.799988" xlink:href="#ACaslonPro-Regular-97"/>
      <use x="151.499985" xlink:href="#ACaslonPro-Regular-107"/>
      <use x="201.099976" xlink:href="#ACaslonPro-Regular-121"/>
      <use x="244.699966" xlink:href="#ACaslonPro-Regular-32"/>
      <use x="270.09996" xlink:href="#ACaslonPro-Regular-82"/>
      <use x="339.799942" xlink:href="#ACaslonPro-Regular-101"/>
      <use x="382.399933" xlink:href="#ACaslonPro-Regular-76"/>
      <use x="448.59993" xlink:href="#ACaslonPro-Regular-85"/>
     </g>
    </g>
    <g id="line2d_32">
     <path d="M 66.6 114.120437 
L 86.6 114.120437 
" style="fill:none;stroke:#9467bd;stroke-linecap:square;stroke-width:1.5;"/>
    </g>
    <g id="line2d_33"/>
    <g id="text_21">
     <!-- Swish -->
     <defs>
      <path d="M 41.5 35.203125 
C 41.09375 36.703125 41.90625 37.796875 42.90625 37.796875 
L 45 37.796875 
C 45.5 37.796875 45.703125 38.09375 45.703125 38.59375 
L 45.703125 40.703125 
C 45.703125 41.203125 45.5 41.40625 44.796875 41.40625 
C 44 41.40625 41.796875 41.09375 37.203125 41.09375 
C 32.203125 41.09375 29 41.40625 28.203125 41.40625 
C 27.59375 41.40625 27.296875 41.203125 27.296875 40.59375 
L 27.296875 38.5 
C 27.296875 38 27.5 37.796875 28 37.796875 
L 29.5 37.796875 
C 30.90625 37.796875 31.703125 37.5 32.203125 36.796875 
C 32.796875 36 32.90625 35.203125 33.09375 33.59375 
L 22.90625 9.203125 
L 22.5 9.203125 
L 14.59375 35.703125 
C 14 37.5 14.703125 38.40625 15.796875 38.40625 
L 16.703125 38.40625 
C 17.40625 38.40625 17.5 38.703125 17.5 39.203125 
L 17.5 41.203125 
C 17.5 41.796875 17.296875 42 16.703125 42 
C 15.203125 42 12.796875 41.703125 8.296875 41.703125 
C 2.59375 41.703125 0.59375 42 -0.796875 42 
C -1.296875 42 -1.40625 41.703125 -1.40625 41.203125 
L -1.40625 39.296875 
C -1.40625 38.703125 -1.296875 38.40625 -0.703125 38.40625 
L 1.5 38.40625 
C 3.90625 38.40625 5 37.59375 5.703125 35.703125 
L 18.796875 0.5 
C 19.203125 -0.703125 19.703125 -1.5 20.5 -1.5 
C 21.296875 -1.5 22.09375 -1.09375 22.59375 0.09375 
L 34.90625 28.90625 
L 35.40625 28.90625 
L 45.203125 0.40625 
C 45.59375 -0.796875 46.296875 -1.5 47 -1.5 
C 47.796875 -1.5 48.5 -1.296875 48.90625 -0.203125 
C 50.203125 3 62.90625 34.796875 64.09375 36.703125 
C 64.703125 37.59375 66.09375 38.40625 67.296875 38.40625 
L 69.796875 38.40625 
C 70.296875 38.40625 70.5 38.703125 70.5 39.203125 
L 70.5 41.296875 
C 70.5 41.703125 70.296875 42 69.796875 42 
C 68.59375 42 66.796875 41.703125 62.5 41.703125 
C 58.40625 41.703125 55.40625 42 54.796875 42 
C 54.40625 42 54.09375 41.796875 54.09375 41.296875 
L 54.09375 39.203125 
C 54.09375 38.703125 54.203125 38.40625 54.703125 38.40625 
L 56.09375 38.40625 
C 58.09375 38.40625 58.90625 36.40625 57.59375 32.90625 
L 49.5 10.90625 
L 49.09375 10.90625 
z
" id="ACaslonPro-Regular-119"/>
      <path d="M 16.59375 -1.203125 
C 25.09375 -1.203125 31.703125 3.90625 31.796875 12 
C 31.703125 19.703125 27.09375 22.703125 19.796875 24.796875 
C 14.90625 26.203125 10.203125 27.296875 10.203125 33.09375 
C 10.203125 37.40625 14.09375 39.703125 17.90625 39.703125 
C 21.796875 39.703125 23.703125 37.703125 24.90625 35.796875 
L 28.296875 31.203125 
C 28.59375 30.703125 28.796875 30.59375 29.203125 30.703125 
L 30.40625 31.09375 
C 30.90625 31.296875 31.09375 31.59375 31.09375 32 
L 29.59375 39 
C 29.5 39.59375 29.296875 40.09375 27.796875 40.796875 
C 26 41.703125 23.40625 42.90625 18.59375 42.90625 
C 11.09375 42.90625 4.59375 37.59375 4.59375 30.703125 
C 4.59375 22.796875 10.5 19.703125 16.40625 18 
C 23.90625 15.90625 26.09375 13.296875 26.09375 8.796875 
C 26.09375 4.09375 21.703125 2 18.203125 2 
C 12.90625 2 11.5 4.5 9.5 8.203125 
L 7 13.09375 
C 6.796875 13.59375 6.5 13.796875 6.09375 13.703125 
L 4.796875 13.40625 
C 4.40625 13.296875 4.09375 13.09375 4.203125 12.59375 
L 5.90625 3.09375 
C 6 2.59375 6 2 6.5 1.703125 
C 7.703125 0.796875 11.703125 -1.203125 16.59375 -1.203125 
z
" id="ACaslonPro-Regular-115"/>
     </defs>
     <g transform="translate(94.6 117.620437)scale(0.1 -0.1)">
      <use xlink:href="#ACaslonPro-Regular-83"/>
      <use x="54.799988" xlink:href="#ACaslonPro-Regular-119"/>
      <use x="123.399979" xlink:href="#ACaslonPro-Regular-105"/>
      <use x="150.099976" xlink:href="#ACaslonPro-Regular-115"/>
      <use x="185.699966" xlink:href="#ACaslonPro-Regular-104"/>
     </g>
    </g>
   </g>
  </g>
 </g>
 <defs>
  <clipPath id="p60ebe4d29a">
   <rect height="266.112" width="357.12" x="57.6" y="41.472"/>
  </clipPath>
 </defs>
</svg>
