<?xml version="1.0" encoding="utf-8" standalone="no"?>
<!DOCTYPE svg PUBLIC "-//W3C//DTD SVG 1.1//EN"
  "http://www.w3.org/Graphics/SVG/1.1/DTD/svg11.dtd">
<!-- Created with matplotlib (https://matplotlib.org/) -->
<svg height="360pt" version="1.1" viewBox="0 0 504 360" width="504pt" xmlns="http://www.w3.org/2000/svg" xmlns:xlink="http://www.w3.org/1999/xlink">
 <defs>
  <style type="text/css">
*{stroke-linecap:butt;stroke-linejoin:round;}
  </style>
 </defs>
 <g id="figure_1">
  <g id="patch_1">
   <path d="M 0 360 
L 504 360 
L 504 0 
L 0 0 
z
" style="fill:#ffffff;"/>
  </g>
  <g id="axes_1">
   <g id="patch_2">
    <path d="M 63 320.4 
L 453.6 320.4 
L 453.6 43.2 
L 63 43.2 
z
" style="fill:#ffffff;"/>
   </g>
   <g id="matplotlib.axis_1">
    <g id="xtick_1">
     <g id="line2d_1">
      <defs>
       <path d="M 0 0 
L 0 3.5 
" id="m9f5fb4a438" style="stroke:#000000;stroke-width:0.8;"/>
      </defs>
      <g>
       <use style="stroke:#000000;stroke-width:0.8;" x="80.754545" xlink:href="#m9f5fb4a438" y="320.4"/>
      </g>
     </g>
     <g id="text_1">
      <!-- −10.0 -->
      <defs>
       <path d="M 5.59375 26.796875 
L 5.59375 21.203125 
L 44.40625 21.203125 
L 44.40625 26.796875 
z
" id="ACaslonPro-Regular-8722"/>
       <path d="M 22.59375 32.5 
C 22.59375 30.703125 22.59375 10.5 22.5 9.203125 
C 22.296875 3.90625 22.09375 3.59375 15.59375 3.59375 
L 11 3.59375 
C 10.203125 3.59375 9.59375 3.5 9.59375 3 
L 9.59375 0.5 
C 9.59375 -0.09375 9.90625 -0.296875 10.40625 -0.296875 
C 10.90625 -0.296875 25 0 25.90625 0 
C 26.796875 0 40.40625 -0.296875 41.296875 -0.296875 
C 42 -0.296875 42.203125 -0.09375 42.203125 0.5 
L 42.203125 2.796875 
C 42.203125 3.296875 41.90625 3.59375 41.203125 3.59375 
L 37.59375 3.59375 
C 31.09375 3.59375 30.703125 4.296875 30.59375 9.5 
C 30.59375 10.796875 30.5 32 30.5 33.203125 
L 30.5 37.40625 
C 30.5 50.296875 30.796875 66 30.796875 66.90625 
C 30.796875 67.703125 30.703125 68.296875 30.09375 68.296875 
C 29.59375 68.296875 29.203125 68 28.703125 67.703125 
L 8 55.796875 
C 7.296875 55.40625 7.203125 55 7.40625 54.59375 
L 8.203125 52.796875 
C 8.40625 52.40625 8.796875 52.40625 9.203125 52.5 
L 16.203125 54.796875 
C 17.796875 55.296875 19.296875 55.59375 20.203125 55.59375 
C 22.09375 55.59375 22.5 53.40625 22.59375 50 
C 22.703125 42.09375 22.59375 37.40625 22.59375 36.09375 
z
" id="ACaslonPro-Regular-49"/>
       <path d="M 25.5 -1.5 
C 38.40625 -1.5 46.90625 11.09375 46.90625 34 
C 46.90625 49.203125 40.09375 68.296875 25.40625 68.296875 
C 12.59375 68.296875 3.09375 52.90625 3.09375 30 
C 3.09375 17.90625 9.296875 -1.5 25.5 -1.5 
z
M 25.59375 2.09375 
C 22.09375 2.09375 18.296875 4 15.203125 10.59375 
C 13 15.203125 11.796875 22.203125 11.796875 31.703125 
C 11.796875 40 12.203125 51.703125 15.796875 58.703125 
C 18.09375 63.203125 20.90625 64.703125 24.796875 64.703125 
C 33.296875 64.703125 38.296875 50.90625 38.296875 36.203125 
C 38.296875 21.59375 37.40625 14 35.203125 9.203125 
C 32.5 3.296875 28.703125 2.09375 25.59375 2.09375 
z
" id="ACaslonPro-Regular-48"/>
       <path d="M 13 -1.203125 
C 16.09375 -1.203125 18.59375 1 18.59375 4.296875 
C 18.59375 8 15.90625 10.296875 13 10.296875 
C 8 10.296875 6.796875 6.40625 6.796875 4.703125 
C 6.796875 0 10.796875 -1.203125 13 -1.203125 
z
" id="ACaslonPro-Regular-46"/>
      </defs>
      <g transform="translate(69.484233 334.629687)scale(0.1 -0.1)">
       <use xlink:href="#ACaslonPro-Regular-8722"/>
       <use x="49.999985" xlink:href="#ACaslonPro-Regular-49"/>
       <use x="99.999969" xlink:href="#ACaslonPro-Regular-48"/>
       <use x="149.999954" xlink:href="#ACaslonPro-Regular-46"/>
       <use x="175.399948" xlink:href="#ACaslonPro-Regular-48"/>
      </g>
     </g>
    </g>
    <g id="xtick_2">
     <g id="line2d_2">
      <g>
       <use style="stroke:#000000;stroke-width:0.8;" x="125.18534" xlink:href="#m9f5fb4a438" y="320.4"/>
      </g>
     </g>
     <g id="text_2">
      <!-- −7.5 -->
      <defs>
       <path d="M 19.5 66.796875 
C 14.40625 66.796875 13.59375 67.296875 13.796875 68.703125 
C 14 70.203125 13.59375 70.5 12.5 70.5 
C 11.296875 70.5 11.203125 70.40625 10.90625 69.796875 
L 4.703125 53.703125 
C 4.40625 52.796875 4.40625 52.703125 5.296875 52.203125 
C 6 51.796875 6.703125 51.703125 7.203125 52.40625 
C 10.09375 56.703125 11.40625 59.40625 17.40625 59.40625 
L 41.09375 59.40625 
C 35.40625 48.09375 18 14.90625 16.296875 11.5 
C 15 8.796875 12.796875 4.703125 12.796875 2.203125 
C 12.796875 0 14.203125 -1.5 16.703125 -1.5 
C 18.5 -1.5 20.5 -0.5 21.703125 3.59375 
C 25.796875 17.40625 34.203125 35.90625 35.203125 38.203125 
C 39.203125 48.09375 47.296875 63.09375 47.90625 64.09375 
C 48.5 65.09375 48.59375 65.40625 48.59375 65.90625 
C 48.59375 66.5 48.09375 66.796875 47.59375 66.796875 
z
" id="ACaslonPro-Regular-55"/>
       <path d="M 15.90625 59.09375 
L 36.703125 59.09375 
C 39.796875 59.09375 40.296875 59.5 41 61.09375 
L 44.59375 71.09375 
C 44.796875 71.703125 44.296875 71.796875 43.203125 72.296875 
C 42.59375 72.5 42.296875 72.40625 42 71.796875 
C 40.296875 68.5 39.40625 66.796875 35.90625 66.796875 
L 14.5 66.796875 
C 13.203125 66.796875 13 66.40625 12.90625 65.203125 
L 9.296875 37 
C 9.203125 36.40625 9.296875 36.09375 9.796875 35.90625 
C 10.5 35.5 11 35.59375 11.59375 35.703125 
C 14.203125 35.90625 19.203125 35.90625 24.59375 33.5 
C 31.09375 30.703125 33.40625 25.203125 33.40625 18.203125 
C 33.40625 9.40625 25.59375 2.796875 17.796875 2.796875 
C 14.796875 2.796875 11.40625 3.796875 9.90625 4.703125 
C 8.40625 5.59375 6.703125 6.703125 4.90625 6.703125 
C 3.59375 6.703125 2.703125 5.5 2.703125 4.09375 
C 2.703125 1.203125 8.296875 -1.5 15.703125 -1.5 
C 29.296875 -1.5 41 9 40.90625 23.296875 
C 40.90625 32.296875 35.296875 39.296875 25.5 41.90625 
C 23.296875 42.5 16.59375 43.203125 14.09375 43 
z
" id="ACaslonPro-Regular-53"/>
      </defs>
      <g transform="translate(116.415027 334.629687)scale(0.1 -0.1)">
       <use xlink:href="#ACaslonPro-Regular-8722"/>
       <use x="49.999985" xlink:href="#ACaslonPro-Regular-55"/>
       <use x="99.999969" xlink:href="#ACaslonPro-Regular-46"/>
       <use x="125.399963" xlink:href="#ACaslonPro-Regular-53"/>
      </g>
     </g>
    </g>
    <g id="xtick_3">
     <g id="line2d_3">
      <g>
       <use style="stroke:#000000;stroke-width:0.8;" x="169.616134" xlink:href="#m9f5fb4a438" y="320.4"/>
      </g>
     </g>
     <g id="text_3">
      <!-- −5.0 -->
      <g transform="translate(160.845822 334.629687)scale(0.1 -0.1)">
       <use xlink:href="#ACaslonPro-Regular-8722"/>
       <use x="49.999985" xlink:href="#ACaslonPro-Regular-53"/>
       <use x="99.999969" xlink:href="#ACaslonPro-Regular-46"/>
       <use x="125.399963" xlink:href="#ACaslonPro-Regular-48"/>
      </g>
     </g>
    </g>
    <g id="xtick_4">
     <g id="line2d_4">
      <g>
       <use style="stroke:#000000;stroke-width:0.8;" x="214.046929" xlink:href="#m9f5fb4a438" y="320.4"/>
      </g>
     </g>
     <g id="text_4">
      <!-- −2.5 -->
      <defs>
       <path d="M 31.5 0 
C 34.5 0 36.40625 -0.09375 37 -1.40625 
C 37.40625 -2.296875 37.40625 -2.40625 38.296875 -2.40625 
C 40.09375 -2.40625 39.296875 -2.40625 39.796875 -1.296875 
L 46.296875 14.296875 
C 46.703125 14.90625 46.296875 15.296875 45.5 15.703125 
C 44.5 16.203125 44.203125 16.09375 43.703125 15.203125 
C 41.5 11.5 38.90625 6.796875 32.09375 6.796875 
L 11.796875 6.796875 
C 16.203125 10.703125 24.09375 16.5 30.90625 24.296875 
C 39.90625 34.40625 43.296875 41.59375 43.296875 50.09375 
C 43.296875 61.40625 34.203125 68.296875 25.796875 68.296875 
C 12.296875 68.296875 7.40625 57.203125 5.796875 53.296875 
C 5.40625 52.40625 5.5 52.09375 5.796875 51.90625 
L 7.203125 51.296875 
C 7.703125 51 8 51.09375 8.40625 51.796875 
C 10.09375 54.796875 13.296875 61.40625 21.796875 61.5 
C 29 61.59375 34.40625 56.296875 34.703125 47.40625 
C 35 38.703125 30.40625 31 22.40625 22.40625 
C 14.40625 13.796875 5.59375 6.09375 0.90625 1.703125 
C 0.40625 1.203125 0.296875 0.90625 0.59375 0.203125 
C 0.90625 -0.40625 1.203125 -0.40625 1.703125 -0.40625 
C 2.09375 -0.40625 3.296875 -0.296875 4.796875 -0.203125 
C 6.296875 -0.09375 8.09375 0 9.796875 0 
z
" id="ACaslonPro-Regular-50"/>
      </defs>
      <g transform="translate(205.276616 334.629687)scale(0.1 -0.1)">
       <use xlink:href="#ACaslonPro-Regular-8722"/>
       <use x="49.999985" xlink:href="#ACaslonPro-Regular-50"/>
       <use x="99.999969" xlink:href="#ACaslonPro-Regular-46"/>
       <use x="125.399963" xlink:href="#ACaslonPro-Regular-53"/>
      </g>
     </g>
    </g>
    <g id="xtick_5">
     <g id="line2d_5">
      <g>
       <use style="stroke:#000000;stroke-width:0.8;" x="258.477723" xlink:href="#m9f5fb4a438" y="320.4"/>
      </g>
     </g>
     <g id="text_5">
      <!-- 0.0 -->
      <g transform="translate(252.207411 334.629687)scale(0.1 -0.1)">
       <use xlink:href="#ACaslonPro-Regular-48"/>
       <use x="49.999985" xlink:href="#ACaslonPro-Regular-46"/>
       <use x="75.399979" xlink:href="#ACaslonPro-Regular-48"/>
      </g>
     </g>
    </g>
    <g id="xtick_6">
     <g id="line2d_6">
      <g>
       <use style="stroke:#000000;stroke-width:0.8;" x="302.908518" xlink:href="#m9f5fb4a438" y="320.4"/>
      </g>
     </g>
     <g id="text_6">
      <!-- 2.5 -->
      <g transform="translate(296.638205 334.629687)scale(0.1 -0.1)">
       <use xlink:href="#ACaslonPro-Regular-50"/>
       <use x="49.999985" xlink:href="#ACaslonPro-Regular-46"/>
       <use x="75.399979" xlink:href="#ACaslonPro-Regular-53"/>
      </g>
     </g>
    </g>
    <g id="xtick_7">
     <g id="line2d_7">
      <g>
       <use style="stroke:#000000;stroke-width:0.8;" x="347.339312" xlink:href="#m9f5fb4a438" y="320.4"/>
      </g>
     </g>
     <g id="text_7">
      <!-- 5.0 -->
      <g transform="translate(341.069 334.629687)scale(0.1 -0.1)">
       <use xlink:href="#ACaslonPro-Regular-53"/>
       <use x="49.999985" xlink:href="#ACaslonPro-Regular-46"/>
       <use x="75.399979" xlink:href="#ACaslonPro-Regular-48"/>
      </g>
     </g>
    </g>
    <g id="xtick_8">
     <g id="line2d_8">
      <g>
       <use style="stroke:#000000;stroke-width:0.8;" x="391.770106" xlink:href="#m9f5fb4a438" y="320.4"/>
      </g>
     </g>
     <g id="text_8">
      <!-- 7.5 -->
      <g transform="translate(385.499794 334.629687)scale(0.1 -0.1)">
       <use xlink:href="#ACaslonPro-Regular-55"/>
       <use x="49.999985" xlink:href="#ACaslonPro-Regular-46"/>
       <use x="75.399979" xlink:href="#ACaslonPro-Regular-53"/>
      </g>
     </g>
    </g>
    <g id="xtick_9">
     <g id="line2d_9">
      <g>
       <use style="stroke:#000000;stroke-width:0.8;" x="436.200901" xlink:href="#m9f5fb4a438" y="320.4"/>
      </g>
     </g>
     <g id="text_9">
      <!-- 10.0 -->
      <g transform="translate(427.430588 334.629687)scale(0.1 -0.1)">
       <use xlink:href="#ACaslonPro-Regular-49"/>
       <use x="49.999985" xlink:href="#ACaslonPro-Regular-48"/>
       <use x="99.999969" xlink:href="#ACaslonPro-Regular-46"/>
       <use x="125.399963" xlink:href="#ACaslonPro-Regular-48"/>
      </g>
     </g>
    </g>
    <g id="text_10">
     <!-- Prediction Error ($y - \hat{y}$) -->
     <defs>
      <path d="M 22.5 31.703125 
C 25.703125 31.296875 29.703125 31.203125 33.40625 31.203125 
C 49.296875 31.203125 58.796875 39 58.796875 51.59375 
C 58.796875 57.296875 55.90625 62.90625 51.203125 66.09375 
C 45.5 70 40.203125 71.09375 28.90625 71.09375 
C 25.59375 71.09375 19.703125 70.796875 17.90625 70.796875 
C 8.40625 70.796875 4.796875 71.09375 3.703125 71.09375 
C 3.203125 71.09375 3.09375 70.90625 3.09375 70.40625 
L 3.09375 68 
C 3.09375 67.40625 3.203125 67.203125 3.703125 67.203125 
L 9.40625 67.203125 
C 12.09375 67.203125 13.09375 67 13.296875 65 
C 13.40625 64 13.5 53.09375 13.5 46.5 
L 13.5 35 
C 13.5 23.40625 13.203125 7.796875 13.09375 6.796875 
C 12.796875 4.09375 12.09375 3.59375 8.703125 3.59375 
L 4.40625 3.59375 
C 3.90625 3.59375 3.796875 3.40625 3.796875 2.90625 
L 3.796875 0.40625 
C 3.796875 0 3.90625 -0.296875 4.59375 -0.296875 
C 5.703125 -0.296875 9.59375 0 18.40625 0 
C 27.796875 0 30.90625 -0.296875 32.296875 -0.296875 
C 33.09375 -0.296875 33.203125 0 33.203125 0.5 
L 33.203125 2.90625 
C 33.203125 3.296875 33.09375 3.59375 32.40625 3.59375 
L 26 3.59375 
C 23.90625 3.59375 22.90625 4.59375 22.703125 6.796875 
C 22.59375 8.203125 22.5 21.796875 22.5 26.5 
z
M 22.5 67.203125 
C 24.5 67.90625 28.59375 67.90625 30.296875 67.90625 
C 36.203125 67.90625 48.40625 64.40625 48.40625 51.296875 
C 48.40625 47.796875 48 44.09375 45.796875 41.203125 
C 43.203125 37.703125 37.796875 34.40625 31.703125 34.40625 
C 27.796875 34.40625 24.5 34.703125 22.5 35.296875 
z
" id="ACaslonPro-Regular-80"/>
      <path d="M 9.703125 17.203125 
C 9.703125 12 9.703125 8.5 9.59375 5.203125 
C 9.59375 3.90625 8.90625 3.296875 7.40625 3.296875 
L 3.5 3.296875 
C 2.59375 3.296875 2.40625 3.09375 2.40625 2.40625 
L 2.40625 0.703125 
C 2.40625 -0.09375 2.59375 -0.296875 3 -0.296875 
C 3.59375 -0.296875 7.796875 0 14 0 
C 19.40625 0 24 -0.296875 24.59375 -0.296875 
C 25 -0.296875 25.09375 0 25.09375 0.59375 
L 25.09375 2.40625 
C 25.09375 3 25 3.296875 24.40625 3.296875 
L 19.703125 3.296875 
C 17.59375 3.296875 16.90625 4.296875 16.90625 7.40625 
L 16.90625 28.40625 
C 16.90625 28.703125 17.296875 30.5 17.90625 31.59375 
C 19.59375 34.796875 22.203125 35.796875 23.796875 35.796875 
C 25.09375 35.796875 26.296875 35.5 27.09375 35 
C 27.90625 34.59375 28.90625 34.203125 30 34.203125 
C 31.796875 34.203125 34.203125 36.203125 34.203125 39.09375 
C 34.203125 41.40625 32.5 43.5 29.09375 43.5 
C 24.796875 43.5 20.09375 39.40625 17.09375 34.796875 
L 16.703125 34.796875 
L 16.203125 41.703125 
C 16.203125 42.296875 16.09375 42.90625 15.5 42.90625 
C 15.09375 42.90625 14.703125 42.796875 14.09375 42.5 
L 4.203125 37.40625 
C 3.59375 37.09375 3.40625 36.90625 3.40625 36.5 
L 3.40625 35.90625 
C 3.40625 35.5 3.59375 35.40625 4.203125 35.203125 
L 6.09375 34.203125 
C 8.90625 32.703125 9.703125 31.703125 9.703125 26.59375 
z
" id="ACaslonPro-Regular-114"/>
      <path d="M 36.203125 26.59375 
C 37.796875 26.59375 39 26.796875 39 28.203125 
C 39 32.09375 35.796875 42.90625 24.296875 42.90625 
C 19.296875 42.90625 14.296875 42 10 37.59375 
C 4.703125 32.296875 3.703125 25.59375 3.703125 21.703125 
C 3.703125 14.703125 4.59375 11 8.09375 5.90625 
C 11.796875 0.5 18.09375 -1.203125 23.796875 -1.203125 
C 32.703125 -1.203125 37.90625 5.703125 39.703125 9.703125 
C 40.203125 10.796875 40 11.09375 39.703125 11.203125 
L 38.40625 11.90625 
C 38.09375 12 37.703125 11.796875 37.5 11.40625 
C 35.796875 8.09375 31.5 4.59375 25.40625 4.59375 
C 17.40625 4.59375 11.203125 12 11.203125 21.796875 
C 11.203125 24.09375 11.296875 25.703125 11.5 26.59375 
z
M 11.90625 29.59375 
C 13.796875 37 18 39.90625 22.40625 39.90625 
C 28.90625 39.90625 30.09375 33.296875 30.09375 31 
C 30.09375 30.09375 29.296875 29.59375 27.40625 29.59375 
z
" id="ACaslonPro-Regular-101"/>
      <path d="M 36.296875 41.40625 
C 33.296875 42.296875 29.703125 42.90625 25.59375 42.90625 
C 20 42.90625 14.59375 40.796875 10.703125 36.59375 
C 6 31.90625 3.703125 25.796875 3.703125 19.59375 
C 3.703125 12.90625 4.90625 8.40625 10 3.40625 
C 14.703125 -1.40625 18.5 -1.203125 21.796875 -1.203125 
C 26.90625 -1.203125 33.296875 1 36.5 4.203125 
L 37.796875 -0.203125 
C 38 -0.90625 38.5 -1.203125 39.09375 -1 
L 50.40625 2.796875 
C 51 3 51.203125 3.296875 51.09375 3.90625 
L 50.90625 4.703125 
C 50.703125 5.203125 50.296875 5.296875 48.90625 5.40625 
C 47.5 5.5 45.40625 6.09375 44.5 7.09375 
C 43.703125 8.09375 43.5 12.5 43.5 16.203125 
L 43.5 38.296875 
C 43.5 51 43.59375 65.5 43.90625 70.5 
C 44 71.59375 43.90625 72.296875 43.40625 72.296875 
C 42.703125 72.296875 42 72.09375 41.09375 72 
C 39.203125 71.59375 34 70.703125 30.09375 69.90625 
C 29.5 69.796875 29.296875 69.59375 29.296875 69.203125 
L 29.296875 67.5 
C 29.296875 67.09375 29.40625 66.90625 30 66.796875 
C 35.59375 65.90625 36.296875 64.703125 36.296875 60.90625 
z
M 36.296875 12 
C 36.296875 10.90625 36.203125 10.09375 35.703125 8.59375 
C 34.703125 6 30.40625 3.09375 24.796875 3.09375 
C 19 3.09375 11.203125 11.296875 11.203125 22.59375 
C 11.203125 26.40625 11.90625 31.703125 15.796875 35.90625 
C 18.40625 38.59375 21.796875 39.5 24.90625 39.5 
C 30.796875 39.5 34 36.796875 35.40625 34.09375 
C 36.296875 32.5 36.296875 30.59375 36.296875 29.203125 
z
" id="ACaslonPro-Regular-100"/>
      <path d="M 10.203125 14.40625 
C 10.203125 11.40625 10.203125 8.296875 10.09375 5.296875 
C 10 3.703125 9.59375 3.296875 8.5 3.296875 
L 3.59375 3.296875 
C 2.90625 3.296875 2.59375 3.09375 2.59375 2.5 
L 2.59375 0.5 
C 2.59375 -0.09375 2.90625 -0.296875 3.40625 -0.296875 
C 4.5 -0.296875 8.40625 0 14.203125 0 
C 18.40625 0 23 -0.296875 23.796875 -0.296875 
C 24.5 -0.296875 24.703125 0 24.703125 0.703125 
L 24.703125 2.40625 
C 24.703125 3 24.5 3.296875 23.703125 3.296875 
L 19.09375 3.296875 
C 18 3.296875 17.703125 4 17.5 5.90625 
C 17.40625 7 17.40625 10.59375 17.40625 14.5 
L 17.40625 25.40625 
C 17.40625 33.703125 17.40625 40 17.59375 41.703125 
C 17.703125 42.40625 17.59375 42.90625 17.09375 42.90625 
C 16.5 42.90625 16 42.703125 15.203125 42.296875 
C 11.40625 40.203125 7.59375 38.59375 4.40625 37.40625 
C 3.90625 37.203125 3.703125 37 3.703125 36.703125 
L 3.703125 35.796875 
C 3.703125 35.40625 3.90625 35.203125 4.59375 35.09375 
C 9.59375 34.296875 10.203125 32.5 10.203125 29.09375 
z
M 11.203125 54.40625 
C 15.203125 54.40625 17 57.296875 17 59.90625 
C 17 62.09375 15.296875 64.796875 11.796875 64.796875 
C 7.796875 64.796875 5.703125 62.09375 5.703125 59.59375 
C 5.703125 56.40625 9 54.40625 11.203125 54.40625 
z
" id="ACaslonPro-Regular-105"/>
      <path d="M 22.796875 39.703125 
C 25.203125 39.703125 27.296875 39.40625 29.5 35.296875 
C 31 32.59375 32.703125 31.296875 35 31.296875 
C 37.09375 31.296875 38.59375 32.5 38.703125 34.796875 
C 38.703125 36.90625 35.5 42.90625 25.09375 42.90625 
C 11.90625 42.90625 3.703125 31.09375 3.703125 19.40625 
C 3.703125 14.90625 4.5 10.703125 8.203125 5.796875 
C 12.796875 0 18.40625 -1.203125 23.703125 -1.203125 
C 30.5 -1.203125 36.90625 2.59375 39.796875 5.90625 
C 40.296875 6.5 40.203125 6.796875 39.796875 7.203125 
L 38.796875 8.203125 
C 38.5 8.5 38.203125 8.40625 38 8.203125 
C 34.59375 5 32 3.90625 27 3.90625 
C 23.59375 3.90625 19.40625 4.703125 16.09375 9 
C 13.40625 12.703125 11 18.796875 11 24.203125 
C 11 34.5 17.09375 39.703125 22.796875 39.703125 
z
" id="ACaslonPro-Regular-99"/>
      <path d="M 16.90625 22.5 
C 16.90625 27.09375 17 31.90625 17.203125 36.5 
L 30.09375 36.5 
C 30.703125 36.5 30.90625 36.796875 31 37.296875 
L 32 40.796875 
C 32.203125 41.203125 31.90625 41.703125 31.296875 41.703125 
L 17.40625 41.703125 
L 17.90625 51.59375 
C 17.90625 52.40625 17.703125 53.09375 16.90625 53.09375 
C 16.296875 53.09375 15.796875 52.90625 15.5 52.09375 
C 14.203125 48.703125 6.5 40.90625 4.09375 39.5 
C 2.90625 38.796875 2.296875 38.5 2.296875 37.703125 
C 2.296875 36.90625 2.90625 36.5 3.796875 36.5 
L 9.90625 36.5 
C 9.796875 32.296875 9.703125 25.59375 9.703125 23.796875 
L 9.703125 21.59375 
C 9.703125 20.203125 9.40625 11.40625 9.40625 7.296875 
C 9.40625 3.5 14.203125 -1.203125 19.09375 -1.203125 
C 25.09375 -1.203125 29.203125 1.796875 30.203125 2.796875 
C 30.5 3.09375 30.703125 3.5 30.40625 3.90625 
L 29.90625 4.796875 
C 29.59375 5.203125 29.203125 5.296875 28.703125 5 
C 27.296875 4.09375 24.40625 3.703125 22.09375 3.703125 
C 20.296875 3.703125 16.90625 5 16.90625 12.5 
z
" id="ACaslonPro-Regular-116"/>
      <path d="M 24.203125 -1.203125 
C 36.5 -1.203125 46.296875 9.90625 46.296875 20.796875 
C 46.296875 27.296875 44 32.5 39.5 37.09375 
C 36.5 40.09375 31 42.90625 25.5 42.90625 
C 22.203125 42.90625 17.296875 42.09375 12.09375 38.09375 
C 6.203125 33.5 3.5 27.09375 3.5 22 
C 3.5 14.90625 4.40625 11.203125 9 5.703125 
C 13.203125 0.703125 19.40625 -1.203125 24.203125 -1.203125 
z
M 25.40625 1.796875 
C 20.703125 1.796875 17.796875 3.703125 15.5 7 
C 12.296875 11.59375 11.703125 15.40625 11.703125 21 
C 11.703125 28.59375 13.09375 32.703125 17 36.703125 
C 19.40625 39.296875 22 39.90625 24.703125 39.90625 
C 29.796875 39.90625 37.90625 32.90625 37.90625 21.796875 
C 37.90625 11.09375 33 1.796875 25.40625 1.796875 
z
" id="ACaslonPro-Regular-111"/>
      <path d="M 44.796875 31.203125 
C 44.796875 33.703125 42.296875 38.703125 39.296875 40.703125 
C 36.90625 42.296875 33.796875 42.90625 30.796875 42.90625 
C 25.796875 42.90625 20 39.203125 17.09375 35.59375 
L 16.90625 35.59375 
L 16.203125 41.703125 
C 16.09375 42.5 15.90625 42.90625 15.40625 42.90625 
C 15 42.90625 14.40625 42.59375 13.59375 42.203125 
L 5 37.40625 
C 4.5 37.203125 4.09375 36.90625 4.09375 36.40625 
L 4.09375 35.90625 
C 4.09375 35.59375 4.203125 35.296875 4.90625 35 
L 5.703125 34.59375 
C 8.203125 33.40625 9.796875 31.703125 9.796875 28.703125 
L 9.796875 5.296875 
C 9.796875 3.59375 9.09375 3.296875 7.796875 3.296875 
L 4.90625 3.296875 
C 4.09375 3.296875 3.90625 3 3.90625 2.40625 
L 3.90625 0.59375 
C 3.90625 0 4.09375 -0.296875 4.59375 -0.296875 
C 5.203125 -0.296875 8.40625 0 13.5 0 
C 18.796875 0 21.5 -0.296875 22.203125 -0.296875 
C 22.703125 -0.296875 22.90625 0 22.90625 0.59375 
L 22.90625 2.296875 
C 22.90625 3 22.703125 3.296875 21.90625 3.296875 
L 19.40625 3.296875 
C 17.296875 3.296875 17 3.90625 17 6.59375 
L 17 27.296875 
C 17 29.203125 17.296875 31.90625 19.296875 34.09375 
C 22.296875 37.296875 25.796875 38 27.40625 38 
C 29.90625 38 32.296875 38 34.703125 36.203125 
C 37.59375 34.09375 37.59375 31.203125 37.59375 27.203125 
L 37.59375 14 
C 37.59375 11.40625 37.5 8.203125 37.40625 5.59375 
C 37.296875 3.796875 36.5 3.296875 35.40625 3.296875 
L 32.5 3.296875 
C 31.5 3.296875 31.203125 3.09375 31.203125 2.40625 
L 31.203125 0.796875 
C 31.203125 0 31.40625 -0.296875 32 -0.296875 
C 32.703125 -0.296875 35.90625 0 41 0 
C 46.703125 0 49.796875 -0.296875 50.5 -0.296875 
C 51.09375 -0.296875 51.296875 0.09375 51.296875 0.796875 
L 51.296875 2.40625 
C 51.296875 3 51.09375 3.296875 50.203125 3.296875 
L 47 3.296875 
C 45.703125 3.296875 44.796875 3.796875 44.796875 5.40625 
z
" id="ACaslonPro-Regular-110"/>
      <path id="ACaslonPro-Regular-32"/>
      <path d="M 23.796875 67.59375 
L 41.59375 67.203125 
C 44.296875 67.09375 47.09375 65.90625 49.203125 64.5 
C 51.59375 63 59 53.5 59.203125 53.09375 
C 59.296875 52.90625 59.703125 52.59375 60 52.796875 
L 61.5 53.59375 
C 61.90625 53.796875 61.90625 54.09375 61.796875 54.5 
C 61.5 55.5 57.09375 69.203125 56.703125 70.59375 
C 56.59375 70.90625 56.40625 71.09375 55.90625 71.09375 
C 55.40625 71.09375 53.5 70.90625 51.90625 70.90625 
C 42 70.90625 32.09375 70.796875 22.203125 70.796875 
L 17.796875 70.796875 
C 11.203125 70.796875 7.703125 71.09375 5.5 71.09375 
C 5 71.09375 4.796875 70.90625 4.796875 70.59375 
L 4.796875 67.90625 
C 4.796875 67.296875 5.09375 67.203125 5.59375 67.203125 
L 9.203125 67.203125 
C 12.90625 67.203125 13.90625 66.5 14.296875 63.296875 
C 14.40625 62.296875 14.59375 49.796875 14.59375 41.5 
L 14.59375 31.703125 
L 14.59375 8 
C 14.59375 4.296875 14.203125 3.59375 9.59375 3.59375 
L 5.59375 3.59375 
C 4.90625 3.59375 4.59375 3.5 4.59375 3.09375 
L 4.59375 0.40625 
C 4.59375 -0.09375 4.90625 -0.296875 5.5 -0.296875 
C 6.40625 -0.296875 7.703125 -0.203125 9.796875 -0.09375 
C 11.796875 -0.09375 14.59375 0 18.296875 0 
C 33.90625 0 43.59375 -0.09375 49.59375 -0.09375 
C 55.59375 -0.203125 57.796875 -0.296875 58.296875 -0.296875 
C 59.5 -0.296875 60.203125 0.296875 60.5 1.203125 
L 65.796875 15.90625 
C 66.09375 16.703125 66.09375 17 65.59375 17.296875 
L 64 18.203125 
C 63.40625 18.5 63.09375 18.09375 62.796875 17.59375 
C 61.40625 15.296875 55.796875 8.09375 54.59375 7.09375 
C 52 4.90625 47.59375 3.796875 45.90625 3.59375 
C 43.796875 3.40625 38.796875 3.296875 37.09375 3.296875 
C 34.59375 3.296875 31.703125 3.59375 29.703125 4 
C 26.59375 4.59375 24.09375 6.59375 24 11.796875 
C 24 13.796875 23.796875 23.5 23.796875 28.90625 
L 23.796875 35.09375 
C 25.40625 35.09375 32.296875 35.09375 37 34.59375 
C 39.59375 34.296875 40.703125 32.796875 41.296875 30.703125 
C 41.59375 29.59375 42.203125 27.296875 42.40625 26 
C 42.5 25.296875 42.703125 25 43.203125 25.09375 
L 45.40625 25.40625 
C 45.796875 25.5 46 25.703125 46 26.203125 
C 45.796875 28.296875 45.40625 33.09375 45.40625 36.59375 
C 45.40625 38.09375 45.40625 46.296875 45.703125 48 
C 45.796875 48.40625 45.59375 48.796875 45.09375 48.796875 
L 42.59375 48.90625 
C 42.203125 48.90625 41.90625 48.703125 41.90625 48.203125 
C 41.796875 46.296875 41.40625 44.296875 41.09375 43.296875 
C 40.203125 40.203125 39.40625 39.40625 36.5 38.90625 
C 35.296875 38.703125 24.59375 38.296875 23.796875 38.296875 
z
" id="ACaslonPro-Regular-69"/>
      <path d="M 6 28.703125 
C 6 18.203125 8.09375 9 11.796875 1.5 
C 16 -7.203125 21.796875 -12.703125 25.90625 -16.5 
C 26.59375 -17.09375 27.296875 -17.296875 27.796875 -17.296875 
C 28.703125 -17.296875 29.796875 -16.296875 29.796875 -15.796875 
C 29.796875 -15.296875 29.5 -14.59375 29 -14 
C 19.40625 -4.203125 12.796875 9.203125 12.796875 28.703125 
C 12.796875 48.296875 19.40625 61.59375 28.90625 71.5 
C 29.5 72.09375 29.796875 72.90625 29.796875 73.296875 
C 29.796875 73.796875 28.703125 74.703125 27.796875 74.703125 
C 27.296875 74.703125 26.59375 74.5 25.90625 74 
C 21.796875 70.09375 16.296875 64 12.703125 56 
C 8.703125 47.5 6 39.40625 6 28.703125 
z
" id="ACaslonPro-Regular-40"/>
      <path d="M 24.296875 18.59375 
L 26.40625 7.59375 
Q 33.09375 18.59375 35.84375 24.34375 
Q 38.59375 30.09375 38.59375 33.296875 
Q 38.59375 34.90625 36 36.5 
Q 33.40625 38.203125 33.40625 40.40625 
Q 33.40625 42 34.546875 43.046875 
Q 35.703125 44.09375 37.40625 44.09375 
Q 39.59375 44.09375 41.09375 42.5 
Q 42.59375 40.90625 42.59375 38.59375 
Q 42.59375 29.90625 29.5 8.09375 
Q 21.703125 -4.796875 14.34375 -12.6875 
Q 7 -20.59375 2.703125 -20.59375 
Q 0.40625 -20.59375 -1 -19.390625 
Q -2.40625 -18.203125 -2.40625 -16.296875 
Q -2.40625 -14.59375 -1.25 -13.4375 
Q -0.09375 -12.296875 1.5 -12.296875 
Q 3.40625 -12.296875 4.90625 -13.6875 
Q 6.40625 -15.09375 7.59375 -15.09375 
Q 9.40625 -15.09375 12.40625 -11.796875 
Q 13.703125 -10.5 16.25 -7.140625 
Q 18.796875 -3.796875 19.5 -2.703125 
Q 20.5 -0.703125 20.5 0.796875 
Q 20.5 3.796875 17.390625 16.34375 
Q 14.296875 28.90625 12.296875 34 
Q 10.90625 37.703125 9.25 39.046875 
Q 7.59375 40.40625 4.59375 40.40625 
Q 3 40.40625 1.5 40 
L 1.5 41.703125 
Q 3.703125 42.09375 4.703125 42.296875 
Q 8.796875 43.09375 15.40625 44.09375 
L 15.796875 44.09375 
Q 16.90625 44.09375 19.953125 34.796875 
Q 23 25.5 24.296875 18.59375 
z
" id="STIXGeneral-Italic-121"/>
      <path d="M 62.09375 22 
L 6.40625 22 
L 6.40625 28.59375 
L 62.09375 28.59375 
z
" id="STIXGeneral-Regular-8722"/>
      <path d="M -7.5 50.703125 
L -10.90625 50.703125 
L -23.09375 61 
L -35.203125 50.703125 
L -38.59375 50.703125 
L -26.203125 67.40625 
L -20 67.40625 
z
" id="STIXGeneral-Regular-770"/>
      <path d="M 27 28.703125 
C 27 39.203125 24.90625 48.40625 21.203125 55.90625 
C 17 64.59375 11.203125 70.09375 7.09375 74 
C 6.40625 74.5 5.703125 74.703125 5.203125 74.703125 
C 4.296875 74.703125 3.203125 73.796875 3.203125 73.296875 
C 3.203125 72.796875 3.5 72 4 71.40625 
C 13.59375 61.59375 20.203125 48.203125 20.203125 28.703125 
C 20.203125 9.09375 13.59375 -4.203125 4.09375 -14.09375 
C 3.5 -14.703125 3.203125 -15.40625 3.203125 -15.796875 
C 3.203125 -16.296875 4.296875 -17.296875 5.203125 -17.296875 
C 5.703125 -17.296875 6.40625 -17.09375 7.09375 -16.5 
C 11.203125 -12.703125 16.703125 -6.5 20.296875 1.40625 
C 24.296875 9.90625 27 18 27 28.703125 
z
" id="ACaslonPro-Regular-41"/>
     </defs>
     <g transform="translate(211.15 348.609375)scale(0.1 -0.1)">
      <use transform="translate(0 0.296875)" xlink:href="#ACaslonPro-Regular-80"/>
      <use transform="translate(60.699997 0.296875)" xlink:href="#ACaslonPro-Regular-114"/>
      <use transform="translate(94.799988 0.296875)" xlink:href="#ACaslonPro-Regular-101"/>
      <use transform="translate(137.399979 0.296875)" xlink:href="#ACaslonPro-Regular-100"/>
      <use transform="translate(189.499969 0.296875)" xlink:href="#ACaslonPro-Regular-105"/>
      <use transform="translate(216.199966 0.296875)" xlink:href="#ACaslonPro-Regular-99"/>
      <use transform="translate(257.299957 0.296875)" xlink:href="#ACaslonPro-Regular-116"/>
      <use transform="translate(289.199951 0.296875)" xlink:href="#ACaslonPro-Regular-105"/>
      <use transform="translate(315.899948 0.296875)" xlink:href="#ACaslonPro-Regular-111"/>
      <use transform="translate(365.699936 0.296875)" xlink:href="#ACaslonPro-Regular-110"/>
      <use transform="translate(418.899933 0.296875)" xlink:href="#ACaslonPro-Regular-32"/>
      <use transform="translate(444.299927 0.296875)" xlink:href="#ACaslonPro-Regular-69"/>
      <use transform="translate(513.299911 0.296875)" xlink:href="#ACaslonPro-Regular-114"/>
      <use transform="translate(547.399902 0.296875)" xlink:href="#ACaslonPro-Regular-114"/>
      <use transform="translate(581.499893 0.296875)" xlink:href="#ACaslonPro-Regular-111"/>
      <use transform="translate(631.299881 0.296875)" xlink:href="#ACaslonPro-Regular-114"/>
      <use transform="translate(665.399872 0.296875)" xlink:href="#ACaslonPro-Regular-32"/>
      <use transform="translate(690.799866 0.296875)" xlink:href="#ACaslonPro-Regular-40"/>
      <use transform="translate(723.79985 0.296875)" xlink:href="#STIXGeneral-Italic-121"/>
      <use transform="translate(782.639841 0.296875)" xlink:href="#STIXGeneral-Regular-8722"/>
      <use transform="translate(916.27357 6.1875)" xlink:href="#STIXGeneral-Regular-770"/>
      <use transform="translate(865.579822 0.296875)" xlink:href="#STIXGeneral-Italic-121"/>
      <use transform="translate(909.979816 0.296875)" xlink:href="#ACaslonPro-Regular-41"/>
     </g>
    </g>
   </g>
   <g id="matplotlib.axis_2">
    <g id="ytick_1">
     <g id="line2d_10">
      <defs>
       <path d="M 0 0 
L -3.5 0 
" id="m949dad9e4f" style="stroke:#000000;stroke-width:0.8;"/>
      </defs>
      <g>
       <use style="stroke:#000000;stroke-width:0.8;" x="63" xlink:href="#m949dad9e4f" y="307.8"/>
      </g>
     </g>
     <g id="text_11">
      <!-- 0 -->
      <g transform="translate(51 311.414844)scale(0.1 -0.1)">
       <use xlink:href="#ACaslonPro-Regular-48"/>
      </g>
     </g>
    </g>
    <g id="ytick_2">
     <g id="line2d_11">
      <g>
       <use style="stroke:#000000;stroke-width:0.8;" x="63" xlink:href="#m949dad9e4f" y="251.8"/>
      </g>
     </g>
     <g id="text_12">
      <!-- 2 -->
      <g transform="translate(51 255.414844)scale(0.1 -0.1)">
       <use xlink:href="#ACaslonPro-Regular-50"/>
      </g>
     </g>
    </g>
    <g id="ytick_3">
     <g id="line2d_12">
      <g>
       <use style="stroke:#000000;stroke-width:0.8;" x="63" xlink:href="#m949dad9e4f" y="195.8"/>
      </g>
     </g>
     <g id="text_13">
      <!-- 4 -->
      <defs>
       <path d="M 37.5 0 
C 38.703125 0 38.90625 0.296875 38.90625 1.40625 
L 38.90625 18.703125 
L 46.59375 18.703125 
C 47.90625 18.703125 48.203125 19.09375 48.203125 19.703125 
L 48.203125 24.5 
C 48.203125 25.09375 47.703125 25.296875 47 25.296875 
L 38.90625 25.296875 
L 38.90625 65.296875 
C 38.90625 67.59375 38.5 68.296875 37.59375 68.296875 
C 36.796875 68.296875 36 67.5 35.40625 66.703125 
L 2.90625 21.90625 
C 2.203125 20.90625 1.90625 20.5 1.90625 19.90625 
C 1.90625 19.09375 2.5 18.703125 3.40625 18.703125 
L 31.296875 18.703125 
L 31.296875 1.09375 
C 31.296875 0.203125 31.59375 0 32.5 0 
z
M 31.40625 24.796875 
L 11.796875 24.796875 
C 10 24.796875 9.90625 25.796875 11.09375 27.5 
L 29.5 52.90625 
C 30.40625 54.203125 31.40625 53.90625 31.40625 52.296875 
z
" id="ACaslonPro-Regular-52"/>
      </defs>
      <g transform="translate(51 199.414844)scale(0.1 -0.1)">
       <use xlink:href="#ACaslonPro-Regular-52"/>
      </g>
     </g>
    </g>
    <g id="ytick_4">
     <g id="line2d_13">
      <g>
       <use style="stroke:#000000;stroke-width:0.8;" x="63" xlink:href="#m949dad9e4f" y="139.8"/>
      </g>
     </g>
     <g id="text_14">
      <!-- 6 -->
      <defs>
       <path d="M 25.203125 -1.5 
C 31.5 -1.5 35.703125 0.5 39.40625 4.5 
C 42.90625 8.09375 45.59375 12.40625 45.59375 21.703125 
C 45.59375 28.203125 40.40625 39.296875 27.90625 39.296875 
C 22.09375 39.296875 17.796875 37.5 14.59375 34.703125 
C 17.09375 51.09375 30.296875 62.09375 38.296875 65.703125 
C 38.90625 66 39.203125 66.5 39.203125 67.296875 
C 39.203125 68 38.59375 68.296875 38 68.296875 
C 37.296875 68.296875 35.90625 67.90625 34.296875 67.203125 
C 29.796875 65.40625 24.40625 62.09375 19.59375 57.5 
C 9 47.203125 4.40625 34.90625 4.40625 22.40625 
C 4.40625 17.203125 5.796875 9.40625 10.796875 4 
C 13.796875 0.40625 18.5 -1.5 25.203125 -1.5 
z
M 25.796875 1.703125 
C 13.703125 1.703125 12.90625 14.09375 12.90625 19.203125 
C 12.90625 23.40625 13.703125 27.5 15.09375 30.09375 
C 16.296875 32.59375 19.09375 35 25 35 
C 32.703125 35 37.09375 27.5 37.09375 18.59375 
C 37.09375 2.796875 28 1.703125 25.796875 1.703125 
z
" id="ACaslonPro-Regular-54"/>
      </defs>
      <g transform="translate(51 143.414844)scale(0.1 -0.1)">
       <use xlink:href="#ACaslonPro-Regular-54"/>
      </g>
     </g>
    </g>
    <g id="ytick_5">
     <g id="line2d_14">
      <g>
       <use style="stroke:#000000;stroke-width:0.8;" x="63" xlink:href="#m949dad9e4f" y="83.8"/>
      </g>
     </g>
     <g id="text_15">
      <!-- 8 -->
      <defs>
       <path d="M 24.90625 -1.5 
C 37 -1.5 44.59375 8.296875 44.59375 16.09375 
C 44.59375 25.203125 38.5 30.296875 30.5 34.09375 
C 41.09375 41.5 44.296875 45.90625 44.296875 55.40625 
C 44.296875 62 36.5 68.296875 27.296875 68.296875 
C 13.09375 68.296875 5.90625 57.796875 5.90625 49.09375 
C 5.90625 41.40625 12.09375 36.203125 19.59375 32 
C 11.09375 26.5 6.59375 21.40625 6.59375 12.796875 
C 6.59375 6.40625 11.203125 -1.5 24.90625 -1.5 
z
M 25.5 1.90625 
C 19.703125 1.90625 12.90625 5.703125 12.90625 14.40625 
C 12.90625 20.703125 16.5 26.5 22.90625 30.09375 
C 30.796875 25.90625 37.40625 22.203125 37.40625 14.09375 
C 37.40625 5.796875 32.703125 1.90625 25.5 1.90625 
z
M 25.703125 64.203125 
C 32.59375 64.203125 38 59.203125 37.703125 51.90625 
C 37.296875 45.203125 32.09375 39.296875 27.203125 36.203125 
C 18.40625 41.40625 13.703125 44.296875 13.703125 51.5 
C 13.703125 58.5 18.59375 64.203125 25.703125 64.203125 
z
" id="ACaslonPro-Regular-56"/>
      </defs>
      <g transform="translate(51 87.414844)scale(0.1 -0.1)">
       <use xlink:href="#ACaslonPro-Regular-56"/>
      </g>
     </g>
    </g>
    <g id="text_16">
     <!-- Loss -->
     <defs>
      <path d="M 14 39.203125 
C 14 33.09375 13.703125 8.203125 13.703125 6.296875 
C 13.703125 5 13.09375 3.59375 9.40625 3.59375 
L 4.59375 3.59375 
C 4 3.59375 3.90625 3.40625 3.90625 2.90625 
L 3.90625 0.40625 
C 3.90625 -0.09375 4 -0.296875 4.703125 -0.296875 
C 5.40625 -0.296875 6.59375 -0.203125 8.59375 -0.09375 
C 10.703125 -0.09375 13.59375 0 17.5 0 
C 22.90625 0 32.703125 0 41.59375 -0.09375 
C 50.5 -0.09375 58.296875 -0.203125 59.59375 -0.296875 
C 60.203125 2.40625 64.203125 18.90625 64.5 19.59375 
C 64.59375 20.203125 64.59375 20.296875 64.296875 20.5 
L 62.703125 21.09375 
C 62.296875 21.296875 62.09375 21.09375 61.90625 20.703125 
C 60.5 16.796875 54.5 4.796875 48.59375 3.90625 
C 45.5 3.5 25.703125 3.703125 23.5 3.90625 
C 23.203125 8 23.203125 29.59375 23.203125 31.296875 
L 23.203125 39.90625 
C 23.203125 46.90625 23.5 62 23.5 63.296875 
C 23.5 66.203125 23.90625 67.203125 27 67.203125 
L 33 67.203125 
C 33.796875 67.203125 34 67.5 34 68 
L 34 70.296875 
C 34 70.796875 33.90625 71.09375 33.09375 71.09375 
C 32.203125 71.09375 28 70.796875 18.296875 70.796875 
C 10 70.796875 6.40625 71.09375 5.296875 71.09375 
C 4.703125 71.09375 4.59375 70.90625 4.59375 70.40625 
L 4.59375 68.203125 
C 4.59375 67.703125 4.703125 67.203125 5.296875 67.203125 
L 10 67.203125 
C 13 67.203125 13.5 66.203125 13.703125 63.59375 
C 13.796875 61.796875 14 51.203125 14 44.796875 
z
" id="ACaslonPro-Regular-76"/>
      <path d="M 16.59375 -1.203125 
C 25.09375 -1.203125 31.703125 3.90625 31.796875 12 
C 31.703125 19.703125 27.09375 22.703125 19.796875 24.796875 
C 14.90625 26.203125 10.203125 27.296875 10.203125 33.09375 
C 10.203125 37.40625 14.09375 39.703125 17.90625 39.703125 
C 21.796875 39.703125 23.703125 37.703125 24.90625 35.796875 
L 28.296875 31.203125 
C 28.59375 30.703125 28.796875 30.59375 29.203125 30.703125 
L 30.40625 31.09375 
C 30.90625 31.296875 31.09375 31.59375 31.09375 32 
L 29.59375 39 
C 29.5 39.59375 29.296875 40.09375 27.796875 40.796875 
C 26 41.703125 23.40625 42.90625 18.59375 42.90625 
C 11.09375 42.90625 4.59375 37.59375 4.59375 30.703125 
C 4.59375 22.796875 10.5 19.703125 16.40625 18 
C 23.90625 15.90625 26.09375 13.296875 26.09375 8.796875 
C 26.09375 4.09375 21.703125 2 18.203125 2 
C 12.90625 2 11.5 4.5 9.5 8.203125 
L 7 13.09375 
C 6.796875 13.59375 6.5 13.796875 6.09375 13.703125 
L 4.796875 13.40625 
C 4.40625 13.296875 4.09375 13.09375 4.203125 12.59375 
L 5.90625 3.09375 
C 6 2.59375 6 2 6.5 1.703125 
C 7.703125 0.796875 11.703125 -1.203125 16.59375 -1.203125 
z
" id="ACaslonPro-Regular-115"/>
     </defs>
     <g transform="translate(44.25 191.159375)rotate(-90)scale(0.1 -0.1)">
      <use xlink:href="#ACaslonPro-Regular-76"/>
      <use x="66.199997" xlink:href="#ACaslonPro-Regular-111"/>
      <use x="115.999985" xlink:href="#ACaslonPro-Regular-115"/>
      <use x="151.599976" xlink:href="#ACaslonPro-Regular-115"/>
     </g>
    </g>
   </g>
   <g id="line2d_15">
    <path clip-path="url(#p288ca2b47e)" d="M 80.754545 237.8 
L 258.477723 307.8 
L 435.845455 98.22 
L 435.845455 98.22 
" style="fill:none;stroke:#1f77b4;stroke-linecap:square;stroke-width:1.5;"/>
   </g>
   <g id="line2d_16">
    <path clip-path="url(#p288ca2b47e)" d="M 80.754545 167.8 
L 258.477723 307.8 
L 435.845455 168.08 
L 435.845455 168.08 
" style="fill:none;stroke:#ff7f0e;stroke-linecap:square;stroke-width:1.5;"/>
   </g>
   <g id="line2d_17">
    <path clip-path="url(#p288ca2b47e)" d="M 80.754545 97.8 
L 258.477723 307.8 
L 435.845455 237.94 
L 435.845455 237.94 
" style="fill:none;stroke:#2ca02c;stroke-linecap:square;stroke-width:1.5;"/>
   </g>
   <g id="line2d_18">
    <path clip-path="url(#p288ca2b47e)" d="M 80.754545 55.8 
L 258.477723 307.8 
L 435.845455 279.856 
L 435.845455 279.856 
" style="fill:none;stroke:#d62728;stroke-linecap:square;stroke-width:1.5;"/>
   </g>
   <g id="patch_3">
    <path d="M 63 320.4 
L 63 43.2 
" style="fill:none;stroke:#000000;stroke-linecap:square;stroke-linejoin:miter;stroke-width:0.8;"/>
   </g>
   <g id="patch_4">
    <path d="M 453.6 320.4 
L 453.6 43.2 
" style="fill:none;stroke:#000000;stroke-linecap:square;stroke-linejoin:miter;stroke-width:0.8;"/>
   </g>
   <g id="patch_5">
    <path d="M 63 320.4 
L 453.6 320.4 
" style="fill:none;stroke:#000000;stroke-linecap:square;stroke-linejoin:miter;stroke-width:0.8;"/>
   </g>
   <g id="patch_6">
    <path d="M 63 43.2 
L 453.6 43.2 
" style="fill:none;stroke:#000000;stroke-linecap:square;stroke-linejoin:miter;stroke-width:0.8;"/>
   </g>
   <g id="legend_1">
    <g id="patch_7">
     <path d="M 230.15 126.098437 
L 286.45 126.098437 
Q 288.45 126.098437 288.45 124.098437 
L 288.45 50.2 
Q 288.45 48.2 286.45 48.2 
L 230.15 48.2 
Q 228.15 48.2 228.15 50.2 
L 228.15 124.098437 
Q 228.15 126.098437 230.15 126.098437 
z
" style="fill:#ffffff;opacity:0.8;stroke:#cccccc;stroke-linejoin:miter;"/>
    </g>
    <g id="text_17">
     <!-- Quantiles ($\gamma$) -->
     <defs>
      <path d="M 40.203125 72.296875 
C 34.90625 72.5 24 69.703125 16.296875 62.703125 
C 9 56 4.796875 46.203125 4.796875 36.59375 
C 4.796875 24.59375 9.09375 15.703125 14.5 10.203125 
C 23.703125 0.40625 32.703125 -1.09375 34.703125 -1.796875 
C 48.59375 -8.296875 63.09375 -13.59375 73.09375 -16.09375 
C 90.59375 -20.59375 96.796875 -20.796875 99.796875 -20.796875 
C 105.40625 -20.796875 111.90625 -14 113.203125 -12.703125 
C 113.59375 -12.40625 113.703125 -12 113.5 -11.703125 
L 112.796875 -10.703125 
C 112.5 -10.296875 112.203125 -10.5 111.90625 -10.796875 
C 110.703125 -11.703125 108.5 -13 105.703125 -13 
C 103.796875 -13 99.90625 -14.09375 74.59375 -8.40625 
C 67.703125 -6.90625 59.296875 -4.90625 49 -1.09375 
L 49 -0.703125 
C 55.296875 1.40625 60.5 4.203125 66.40625 10.09375 
C 72.40625 16 76.90625 25.703125 76.703125 36.40625 
C 76.90625 45.40625 73.90625 54.5 67.09375 61.59375 
C 60.90625 68.09375 51.90625 72.5 40.203125 72.296875 
z
M 41.09375 1.703125 
C 38.296875 1.703125 33.203125 2.40625 25.59375 9.59375 
C 20.703125 14.296875 14.90625 24 14.90625 37.40625 
C 14.90625 45.703125 17 55.59375 23.59375 62.203125 
C 29.203125 67.796875 35 68.703125 39.59375 68.703125 
C 46.90625 68.703125 52 66 58.09375 60.203125 
C 63.40625 55.203125 66.703125 45.296875 66.703125 33.296875 
C 66.703125 24.796875 61.296875 1.703125 41.09375 1.703125 
z
" id="ACaslonPro-Regular-81"/>
      <path d="M 41.703125 27.703125 
C 41.703125 37.5 42.203125 40.09375 42.296875 41 
C 42.40625 41.5 42 42 41.40625 42 
C 41.09375 42 40.703125 41.90625 40.203125 41.90625 
C 39.703125 41.796875 39.203125 41.703125 38.5 41.703125 
L 29.203125 41.703125 
C 28.203125 41.703125 28 41.59375 28 40.796875 
L 28 39.09375 
C 28 38.59375 28.5 38.40625 30.203125 38.40625 
C 32.703125 38.203125 34.296875 37.703125 34.5 34.90625 
L 34.5 11.09375 
C 34.5 10.203125 33.90625 8.90625 33.5 8.40625 
C 31.59375 6 27.59375 3.40625 24.90625 3.40625 
C 22.203125 3.40625 19.40625 3.59375 16.90625 7.203125 
C 13.703125 11.796875 14.703125 18.203125 14.703125 22.203125 
L 14.703125 29.296875 
C 14.703125 35.203125 15 39.90625 15.09375 40.796875 
C 15.203125 41.5 14.703125 42 14 42 
C 13.703125 42 13.296875 41.90625 12.90625 41.90625 
C 12.5 41.796875 12.09375 41.703125 11.5 41.703125 
L 2.59375 41.703125 
C 1.703125 41.703125 1.5 41.5 1.5 40.90625 
L 1.5 39.09375 
C 1.5 38.59375 2 38.5 3.703125 38.40625 
C 6 38.09375 7.40625 37.40625 7.5 34.59375 
L 7.5 23 
C 7.5 12 7.296875 8.703125 11.40625 3.40625 
C 14.703125 -0.90625 18 -1.203125 20.796875 -1.203125 
C 25.796875 -1.203125 31.59375 1.90625 34.40625 5.796875 
L 34.59375 5.796875 
L 35.40625 0 
C 35.5 -1 35.90625 -1.203125 36.296875 -1.203125 
C 37.09375 -1.203125 37.703125 -1 38.296875 -0.796875 
L 48.796875 2.703125 
C 49.203125 2.796875 49.40625 3 49.296875 3.59375 
L 49 4.90625 
C 48.90625 5.296875 48.59375 5.5 47.796875 5.296875 
C 46.59375 5 45.09375 5 44.5 5 
C 43.296875 5 42.203125 5.40625 41.90625 8.5 
C 41.703125 10.59375 41.703125 15.5 41.703125 20.296875 
z
" id="ACaslonPro-Regular-117"/>
      <path d="M 33.59375 17.796875 
L 33.59375 33.09375 
C 33.59375 35.796875 33.5 38.09375 31.40625 40.203125 
C 30 41.5 28.09375 42.90625 23.40625 42.90625 
C 18.90625 42.90625 15.40625 41.90625 11.203125 39.40625 
C 7.09375 37 4.296875 33.203125 4.296875 30 
C 4.296875 27.703125 5.09375 26.796875 6.703125 26.796875 
C 10.796875 26.796875 12 29 12 32.5 
C 12 34.296875 11.09375 35.796875 12.5 37.09375 
C 13.90625 38.40625 17 39.203125 19 39.203125 
C 21.90625 39.203125 23.90625 38.296875 25 37 
C 26.09375 35.703125 26.203125 33.09375 26.40625 31.40625 
L 26.40625 25 
C 24.796875 23.59375 19.59375 21.203125 15.09375 19.203125 
C 7.203125 15.703125 5.09375 11.703125 5.09375 7.09375 
C 5.09375 0.796875 8.703125 -1.203125 11.09375 -1.203125 
C 13.296875 -1.203125 15.09375 -1.203125 17 -0.59375 
C 21.5 0.90625 24.796875 3 26.90625 5.5 
L 27.09375 5.5 
C 28 1.40625 30.59375 -1.203125 34.203125 -1.203125 
C 39.296875 -1.203125 41.203125 2.203125 42 3.703125 
C 42.59375 4.703125 42.40625 5.203125 42.09375 5.5 
L 41.09375 6.296875 
C 40.703125 6.59375 40.5 6.40625 40.09375 5.90625 
C 39.59375 5.203125 38.203125 4.40625 36.59375 4.40625 
C 34.796875 4.40625 33.59375 6.203125 33.59375 11.90625 
z
M 26.296875 9.703125 
C 26.296875 7 21 3.5 18.09375 3.5 
C 15.09375 3.5 12.90625 5.296875 12.90625 9 
C 12.90625 17.296875 22.703125 19.296875 26.296875 22 
z
" id="ACaslonPro-Regular-97"/>
      <path d="M 16.796875 38.703125 
C 16.796875 44.203125 17.09375 65 17.203125 70.5 
C 17.296875 71.796875 17.09375 72.296875 16.40625 72.296875 
C 15.796875 72.296875 15.203125 72.09375 14.296875 71.5 
C 10.59375 69.09375 6.09375 67.296875 2.59375 65.703125 
C 2 65.5 1.703125 65.296875 1.703125 65 
L 1.703125 64.203125 
C 1.703125 64 1.796875 63.90625 2.296875 63.703125 
L 4.296875 63 
C 7.5 62 9.09375 60.40625 9.296875 57 
C 9.5 54.40625 9.59375 45.296875 9.59375 38.203125 
L 9.59375 31.90625 
C 9.59375 26.09375 9.59375 8.90625 9.5 5.796875 
C 9.40625 4 8.40625 3.296875 7.296875 3.296875 
L 2.5 3.296875 
C 1.40625 3.296875 1.203125 3.09375 1.203125 2.40625 
L 1.203125 0.703125 
C 1.203125 0.09375 1.40625 -0.296875 1.90625 -0.296875 
C 2.796875 -0.296875 6.796875 0 13.203125 0 
C 19.40625 0 23.796875 -0.296875 24.5 -0.296875 
C 24.90625 -0.296875 25.09375 0.09375 25.09375 0.703125 
L 25.09375 2.40625 
C 25.09375 3 24.90625 3.296875 24 3.296875 
L 19.5 3.296875 
C 17.40625 3.296875 17 4.703125 16.90625 6.40625 
C 16.796875 9.5 16.796875 24.59375 16.796875 29.796875 
z
" id="ACaslonPro-Regular-108"/>
      <path d="M 43.796875 42.796875 
L 16.40625 3.90625 
Q 16.203125 0.5 16.09375 -1.140625 
Q 16 -2.796875 15.59375 -6.34375 
Q 15.203125 -9.90625 14.59375 -11.84375 
Q 14 -13.796875 13.046875 -16.140625 
Q 12.09375 -18.5 10.640625 -19.546875 
Q 9.203125 -20.59375 7.296875 -20.59375 
Q 3.5 -20.59375 3.5 -15.59375 
Q 3.5 -13.203125 5.140625 -9.5 
Q 6.796875 -5.796875 9.5 -0.890625 
Q 12.203125 4 13.203125 6.203125 
Q 14.703125 20.203125 14.703125 24.296875 
Q 14.703125 37.203125 9.90625 37.203125 
Q 8.40625 37.203125 6.59375 35.296875 
Q 4.796875 33.40625 3.5 29.59375 
L 1.90625 29.59375 
Q 5.59375 43.5 11.796875 43.5 
Q 15.40625 43.5 16.796875 40.453125 
Q 18.203125 37.40625 18.203125 31.703125 
Q 18.203125 28.90625 17.890625 25.5 
Q 17.59375 22.09375 17.046875 17.9375 
Q 16.5 13.796875 16.40625 12.703125 
L 34.203125 42.796875 
z
" id="STIXGeneral-Italic-947"/>
     </defs>
     <g transform="translate(232.15 59.429687)scale(0.1 -0.1)">
      <use transform="translate(0 0.296875)" xlink:href="#ACaslonPro-Regular-81"/>
      <use transform="translate(81.499985 0.296875)" xlink:href="#ACaslonPro-Regular-117"/>
      <use transform="translate(132.099976 0.296875)" xlink:href="#ACaslonPro-Regular-97"/>
      <use transform="translate(174.799973 0.296875)" xlink:href="#ACaslonPro-Regular-110"/>
      <use transform="translate(227.999969 0.296875)" xlink:href="#ACaslonPro-Regular-116"/>
      <use transform="translate(259.899963 0.296875)" xlink:href="#ACaslonPro-Regular-105"/>
      <use transform="translate(286.59996 0.296875)" xlink:href="#ACaslonPro-Regular-108"/>
      <use transform="translate(312.199951 0.296875)" xlink:href="#ACaslonPro-Regular-101"/>
      <use transform="translate(354.799942 0.296875)" xlink:href="#ACaslonPro-Regular-115"/>
      <use transform="translate(390.399933 0.296875)" xlink:href="#ACaslonPro-Regular-32"/>
      <use transform="translate(415.799927 0.296875)" xlink:href="#ACaslonPro-Regular-40"/>
      <use transform="translate(448.799911 0.296875)" xlink:href="#STIXGeneral-Italic-947"/>
      <use transform="translate(489.799896 0.296875)" xlink:href="#ACaslonPro-Regular-41"/>
     </g>
    </g>
    <g id="line2d_19">
     <path d="M 235.529687 70.909375 
L 255.529687 70.909375 
" style="fill:none;stroke:#1f77b4;stroke-linecap:square;stroke-width:1.5;"/>
    </g>
    <g id="line2d_20"/>
    <g id="text_18">
     <!-- 0.25 -->
     <g transform="translate(263.529688 74.409375)scale(0.1 -0.1)">
      <use xlink:href="#ACaslonPro-Regular-48"/>
      <use x="49.999985" xlink:href="#ACaslonPro-Regular-46"/>
      <use x="75.399979" xlink:href="#ACaslonPro-Regular-50"/>
      <use x="125.399963" xlink:href="#ACaslonPro-Regular-53"/>
     </g>
    </g>
    <g id="line2d_21">
     <path d="M 235.529687 85.889062 
L 255.529687 85.889062 
" style="fill:none;stroke:#ff7f0e;stroke-linecap:square;stroke-width:1.5;"/>
    </g>
    <g id="line2d_22"/>
    <g id="text_19">
     <!-- 0.5 -->
     <g transform="translate(263.529688 89.389062)scale(0.1 -0.1)">
      <use xlink:href="#ACaslonPro-Regular-48"/>
      <use x="49.999985" xlink:href="#ACaslonPro-Regular-46"/>
      <use x="75.399979" xlink:href="#ACaslonPro-Regular-53"/>
     </g>
    </g>
    <g id="line2d_23">
     <path d="M 235.529687 100.86875 
L 255.529687 100.86875 
" style="fill:none;stroke:#2ca02c;stroke-linecap:square;stroke-width:1.5;"/>
    </g>
    <g id="line2d_24"/>
    <g id="text_20">
     <!-- 0.75 -->
     <g transform="translate(263.529688 104.36875)scale(0.1 -0.1)">
      <use xlink:href="#ACaslonPro-Regular-48"/>
      <use x="49.999985" xlink:href="#ACaslonPro-Regular-46"/>
      <use x="75.399979" xlink:href="#ACaslonPro-Regular-55"/>
      <use x="125.399963" xlink:href="#ACaslonPro-Regular-53"/>
     </g>
    </g>
    <g id="line2d_25">
     <path d="M 235.529687 115.848437 
L 255.529687 115.848437 
" style="fill:none;stroke:#d62728;stroke-linecap:square;stroke-width:1.5;"/>
    </g>
    <g id="line2d_26"/>
    <g id="text_21">
     <!-- 0.9 -->
     <defs>
      <path d="M 24.59375 68.296875 
C 20.40625 68.296875 15.796875 66.5 11.90625 63.09375 
C 8.09375 59.796875 4.5 51.5 4.5 47.703125 
C 4.5 38.203125 9.203125 27.703125 23 27.703125 
C 28.90625 27.703125 32.5 30.09375 35.203125 32.59375 
L 35.296875 32.40625 
C 33.09375 15.703125 19.796875 4.796875 11.09375 1.296875 
C 10.59375 1.09375 10.203125 0.59375 10.203125 -0.09375 
C 10.203125 -1.09375 10.90625 -1.5 11.703125 -1.5 
C 12.40625 -1.5 13.796875 -1.09375 14.796875 -0.796875 
C 20.296875 1 24.203125 3.203125 29.203125 7.59375 
C 41 18 45.5 31.796875 45.5 45.203125 
C 45.5 48.296875 44.59375 56.203125 40.09375 61.296875 
C 35.59375 66.203125 31.703125 68.296875 24.59375 68.296875 
z
M 24.90625 65.09375 
C 34 65.09375 36.5 56.40625 36.5 47.59375 
C 36.5 43.5 36.203125 40.203125 35 37.703125 
C 33.703125 35.09375 30.703125 32 24.90625 32 
C 18.09375 32 12.5 38.796875 12.5 48.203125 
C 12.5 59.40625 19 65.09375 24.90625 65.09375 
z
" id="ACaslonPro-Regular-57"/>
     </defs>
     <g transform="translate(263.529688 119.348437)scale(0.1 -0.1)">
      <use xlink:href="#ACaslonPro-Regular-48"/>
      <use x="49.999985" xlink:href="#ACaslonPro-Regular-46"/>
      <use x="75.399979" xlink:href="#ACaslonPro-Regular-57"/>
     </g>
    </g>
   </g>
  </g>
 </g>
 <defs>
  <clipPath id="p288ca2b47e">
   <rect height="277.2" width="390.6" x="63" y="43.2"/>
  </clipPath>
 </defs>
</svg>
